<?xml version="1.0" encoding="utf-8"?>
<!-- Generator: Adobe Illustrator 27.5.0, SVG Export Plug-In . SVG Version: 6.00 Build 0)  -->
<svg version="1.1" id="Layer_1" xmlns="http://www.w3.org/2000/svg" xmlns:xlink="http://www.w3.org/1999/xlink" x="0px" y="0px"
	 viewBox="0 0 871.7 461.9" style="enable-background:new 0 0 871.7 461.9;" xml:space="preserve">
<path style="fill:#8CD7EE;" d="M900.091,75.405c-4.904,1.271-3.087-6.538,0.908-3.451C900.636,72.862,900.273,74.497,900.091,75.405
	z"/>
<path style="fill:#8CD7EE;" d="M711.937,225.42c7.628,0.182,15.074-1.453,22.339-3.632
	C730.825,229.96,717.93,231.595,711.937,225.42z"/>
<g>
	<g>
		<path style="fill:#ADBDC8;" d="M-209.946-176.678c36.868-24.7,94.077-9.081,111.694,31.964
			c17.253,0.545,34.689-0.182,51.942,0.182c13.803,0.545,28.514,7.991,33.599,21.612c5.267,11.079,2.724,23.61,3.269,35.233
			c-0.363,3.814,1.09,8.536-1.635,11.805c-2.906,1.816-6.538,1.271-9.807,1.453c-36.868-0.363-73.736,0.182-110.604-0.363
			c-55.756-0.363-111.512,0.363-167.268,0c-3.269-0.182-8.536,0.545-9.081-3.814c-0.908-7.265-0.363-14.529-0.545-21.794
			c0-13.621,8.354-27.061,20.886-32.328c14.711-7.265,31.783-1.271,47.22-5.267C-235.191-153.976-224.112-167.779-209.946-176.678z
			 M-224.839-149.617c-5.267,6.538-6.538,15.074-10.352,22.339c-13.258,1.09-26.516-0.363-39.774,0.908
			c-7.809,0.908-15.256,5.448-19.796,11.987c-6.538,8.899-3.814,20.341-4.359,30.693c93.351,0,186.52,0,279.87,0
			c-0.182-10.352,0.726-20.886-0.545-31.238c-2.906-10.897-13.621-18.525-24.7-19.251c-19.978-0.908-39.956,0.363-59.752-0.363
			c-5.812-17.98-20.523-31.964-37.594-39.048C-170.354-185.577-207.585-176.315-224.839-149.617z"/>
	</g>
	<path style="fill:#ADBDC8;" d="M11.807,121.717c5.085-3.632,11.987-5.085,17.98-3.632c-1.271,0.182-3.996,0.182-5.267,0.363
		c-1.271,1.816-5.63,2.543-4.54,5.63c3.269-1.09,6.357-2.179,9.626-3.087c0.545,2.906,1.09,5.63,1.635,8.536
		c-6.357,2.179-13.076,3.814-18.888,7.446c-0.363-2.543-0.727-4.904-1.09-7.446c-1.635-0.545-2.724-1.635-2.179-3.451
		c1.816-0.182,5.63-0.545,7.628-0.908c0.363-0.727,0.908-2.361,1.271-3.088C16.529,122.08,13.442,121.899,11.807,121.717z"/>
	<path style="fill:#ADBDC8;" d="M-50.85,184.738c1.09,6.175,0.908,12.35,0.182,18.525C-51.577,197.088-51.577,190.913-50.85,184.738
		z"/>
	<path style="fill:#ADBDC8;" d="M-49.216,205.624c2.543,0.545,2.543,7.083,0,7.628C-50.669,211.072-50.487,207.803-49.216,205.624z"
		/>
	<path style="fill:#ADBDC8;" d="M1178.69,220.879c2.361-0.182,4.904-0.182,7.265-0.363c-6.538,20.159-22.884,35.233-39.229,47.583
		c-29.967,21.612-64.11,36.868-98.073,51.034C994.895,342.562,937.867,358,879.75,366.172
		c-44.496,7.083-89.174,13.44-133.669,20.523c-3.814-18.162-13.803-34.87-27.969-47.039c-6.538-5.63-15.074-7.991-22.702-11.623
		c10.352-3.087,21.067-3.814,31.419-5.812c40.137-6.538,80.274-13.803,120.412-21.431c38.866-7.991,77.732-16.164,116.416-24.518
		c37.776-8.354,75.189-18.162,112.602-27.424c26.516-6.901,53.395-12.895,79.729-19.978
		C1163.798,226.691,1171.97,225.42,1178.69,220.879z"/>
	<path style="fill:#ADBDC8;" d="M27.063,238.133c15.982-4.177,30.511-13.076,47.039-15.256
		c-6.357,7.083-14.529,12.713-19.615,21.068c-7.265,9.989-10.715,23.428-6.357,35.415c4.54,12.713,16.346,20.886,28.332,26.153
		c11.805,4.904,23.973,9.989,36.868,10.171c5.449,0.182,11.26-0.545,16.164,2.724c-16.164,3.814-32.509,5.993-48.855,9.262
		c-9.081,1.453-17.98,4.177-27.242,4.54c-29.422-11.805-57.391-29.059-77.732-53.758c15.074-3.995,32.146-0.363,46.131-8.536
		c8.536-7.083,14.529-22.884,4.54-31.238L27.063,238.133z"/>
	<path style="fill:#ADBDC8;" d="M591.526,340.383c24.881-5.085,50.852-8.536,76.097-5.085c-4.722,0-9.626,0.363-14.348,0.545
		c-7.628,7.446-17.435,13.258-21.794,23.428c-7.628-3.088-14.529-7.991-22.339-10.897
		C602.967,346.194,596.974,343.652,591.526,340.383z"/>
	<path style="fill:#ADBDC8;" d="M695.047,341.291c6.538,2.361,12.713,5.812,18.888,9.262l-0.182,0.363
		c-0.363,0.727-0.908,2.361-1.271,3.087c0.363,1.816,0.727,3.632,1.271,5.449c-1.998,0.908-3.814,1.816-5.812,2.724
		c-4.722-6.538-10.352-12.35-17.253-16.527C692.141,344.015,693.594,342.744,695.047,341.291z"/>
	<path style="fill:#ADBDC8;" d="M138.757,356.002c25.789-3.087,51.216-8.899,77.005-12.531c21.249,5.085,43.406,5.812,65.018,7.809
		c70.104,4.904,140.571,0.727,210.493-5.993c10.534-0.545,21.249-2.361,31.783-0.363c-19.433,7.81-39.774,14.166-57.936,24.7
		c-3.632,2.361-7.991,2.361-12.168,2.906c-30.33,2.906-60.478,7.265-90.808,10.715c-2.179,0.182-4.177-0.182-6.175-1.453
		c-30.33-16.709-66.653-16.164-99.889-10.897c-11.079,1.634-22.339,5.267-33.781,3.269c-30.693-3.996-61.386-7.991-91.353-15.982
		C133.49,356.547,136.214,356.183,138.757,356.002z"/>
	<path style="fill:#ADBDC8;" d="M228.657,389.056c18.888-4.54,37.958-7.809,57.391-8.899c1.09,1.271,2.179,2.724,3.269,3.996
		c-5.812,4.54-11.26,9.626-14.711,16.164c3.996-0.726,7.991-1.271,11.805-2.179c-4.177,2.906-8.354,5.993-12.168,9.263
		c-14.348-7.083-29.058-13.258-44.314-17.798L228.657,389.056z"/>
	<path style="fill:#ADBDC8;" d="M329.998,384.334c5.63,1.816,11.442,3.814,16.89,6.175l0.182,0.545
		c0.182,0.545,0.545,1.816,0.545,2.361c1.635,1.635,3.269,3.088,4.904,4.722c-3.087,0.726-6.175,1.634-9.081,2.361
		c-5.267-4.722-11.079-9.081-17.798-11.442C327.092,387.421,328.546,385.968,329.998,384.334z"/>
	<path style="fill:#ADBDC8;" d="M1018.505,390.69l0.545-0.182c7.265,8.536,16.89,15.256,27.787,17.798
		c13.621,2.906,28.514-3.269,36.505-14.529l0.545,0.182c4.177,0.908,8.354,1.998,12.35,3.451
		c-14.893,13.621-35.597,16.527-54.848,17.798c-33.599,2.361-68.651-2.361-98.436-18.888
		C968.379,399.226,994.35,399.226,1018.505,390.69z"/>
	<path style="fill:#ADBDC8;" d="M388.115,423.2c53.94-4.177,107.698-10.17,161.457-14.529
		c-6.357,10.171-18.706,11.624-29.603,13.076c-43.043,5.267-86.086,9.989-129.129,14.529
		C390.113,431.917,389.205,427.559,388.115,423.2z"/>
	<path style="fill:#ADBDC8;" d="M635.658,439.363c8.536,8.536,19.433,15.256,31.783,16.164c13.076,1.816,25.971-5.267,33.962-15.256
		c5.267,0.363,10.352,1.998,13.621,6.538c-16.345,13.076-37.958,16.527-58.299,18.525c-33.599,3.087-67.924-1.09-99.707-11.987
		c-4.359-1.453-8.717-2.906-12.713-5.448c4.722-0.182,9.444-0.182,14.166,0.182C584.443,449.716,611.322,449.171,635.658,439.363z"
		/>
	<path style="fill:#ADBDC8;" d="M-30.146,475.687c73.918-9.262,147.835-17.98,221.753-26.879c-5.63,8.354-16.164,8.718-25.245,9.807
		c-90.808,9.989-181.616,18.706-272.242,28.514c-20.341,2.906-41.045,3.996-61.386,6.357c-3.814,0.363-7.628,0.182-11.442,0
		c20.523-1.635,41.045-4.54,61.749-6.72C-88.263,482.225-59.023,479.682-30.146,475.687z"/>
	<path style="fill:#ADBDC8;" d="M308.023,505.29c13.621,1.816,27.242-5.267,35.597-15.982c5.448,1.816,10.715,3.996,15.982,6.538
		c-8.718,7.446-19.433,12.35-30.693,14.711c-33.781,7.628-69.377,6.901-102.976-1.635c-10.897-3.451-22.339-6.357-32.328-12.168
		c16.346-0.727,32.509,2.179,48.855,0.182c11.805-0.908,23.065-5.085,35.052-5.993C285.866,498.57,296.399,504.564,308.023,505.29z"
		/>
	<g>
		<path style="fill:#ADBDC8;" d="M929.876,567.221c13.44-42.861,55.938-74.826,100.797-76.279
			c27.787-1.453,56.119,7.265,78.095,24.518c12.168,10.897,23.429,23.429,30.33,38.503c2.179,3.995,3.088,8.899,6.357,12.168
			c16.709,1.271,34.326-2.906,50.126,3.995c15.982,5.993,27.787,20.886,30.693,37.413c1.816,10.171,1.635,20.704,0.908,31.056
			c-0.908,4.177-5.993,3.996-9.262,4.177c-128.947-0.182-257.895,0.363-386.842-0.182c-4.54,0.545-5.812-4.177-5.449-7.628
			c-0.182-14.529-1.635-30.148,5.993-43.406c5.812-9.807,14.348-18.525,25.245-22.157c7.991-3.451,16.709-2.361,25.245-2.543
			C897.73,567.221,913.712,567.584,929.876,567.221z M996.711,508.922c-29.059,11.26-52.487,37.231-59.57,67.743
			c-22.702,0.727-45.586-0.182-68.288,0.727c-17.798,0.908-32.691,16.709-34.144,34.144c-0.545,7.265-0.182,14.529-0.363,21.794
			c73.918,0.182,147.654,0,221.572,0.182c53.758-0.363,107.335,0.545,161.094-0.363c0.545-11.624,1.09-23.973-4.54-34.689
			c-5.993-11.805-17.98-20.886-31.42-21.249c-14.893-0.727-29.785,0.726-44.496-0.182c-2.906-9.444-6.175-18.888-11.442-27.242
			c-15.256-25.063-42.135-42.68-71.194-46.857C1034.85,499.115,1015.054,502.203,996.711,508.922z"/>
	</g>
	<g>
		<path style="fill:#ADBDC8;" d="M-152.919,534.349c37.231-4.904,77.55,12.531,97.709,44.496c2.361,3.269,3.451,9.444,8.718,8.718
			c13.984,0,28.695,2.543,39.592,11.805c10.171,8.718,15.074,22.702,13.803,35.778c-0.545,5.267,1.998,15.074-6.175,15.074
			c-51.397,0.545-102.795-0.545-154.374-0.363c-52.124,0-104.248,0.545-156.19,0.182c-4.722-0.363-10.352,1.09-14.348-2.361
			c-1.816-12.713-1.816-27.061,4.54-38.684c7.446-13.621,23.61-20.341,38.684-19.978c15.074,0.182,30.33,0,45.586,0.182
			c3.087-0.363,7.628,0.908,8.899-3.087C-212.67,557.959-183.975,537.799-152.919,534.349z M-181.251,553.237
			c-18.888,9.081-34.144,25.789-41.227,45.586c-21.067-0.363-42.316-0.363-63.384,0.363c-9.989,0.182-19.615,6.175-25.063,14.529
			c-5.448,7.991-3.814,17.98-3.996,27.061c104.066,0,208.314,0,312.38,0c0-8.536,0.908-17.798-3.269-25.608
			c-3.996-6.901-10.897-11.805-18.162-14.892c-9.989-3.996-20.704-1.271-31.056-2.361c-7.446-21.068-25.245-37.413-45.586-46.13
			C-126.04,540.342-156.37,540.705-181.251,553.237z"/>
	</g>
</g>
<g>
	<path style="fill:#FFFFFF;" d="M-224.839-149.617c17.253-26.698,54.485-35.96,83.18-24.155
		c17.072,7.083,31.783,21.068,37.594,39.048c19.978,0.726,39.774-0.545,59.752,0.363c11.079,0.545,21.794,8.354,24.7,19.251
		c1.09,10.352,0.182,20.886,0.545,31.238c-93.351,0-186.701,0-279.87,0c0.363-10.171-2.179-21.794,4.359-30.693
		c4.54-6.538,11.805-11.079,19.796-11.987c13.258-1.271,26.516,0.182,39.774-0.908
		C-231.377-134.725-230.106-143.261-224.839-149.617z"/>
	<g>
		<path style="fill:#FFFFFF;" d="M741.722,40.898c40.864-10.534,82.998-18.343,125.315-17.98
			c37.231-0.363,75.008,6.357,108.425,22.884c7.628,3.814,14.893,7.991,21.249,13.803c-32.872,2.179-65.927,3.996-98.799,5.63
			c-4.177,0-9.989,1.816-8.899,7.083c2.724,6.901,8.718,11.805,13.258,17.435c9.989,10.715,18.706,22.702,28.877,33.236
			c2.179,3.087,5.993,0.908,8.717,0.182c15.256-4.904,30.693-10.17,47.039-10.715c24.881-0.908,49.944-1.453,74.826-1.634
			c28.332-0.363,57.572,5.63,81.727,21.067c22.702,13.984,40.5,37.05,45.041,63.747c1.271,8.354,0.182,16.89-2.361,24.7h-0.363
			c-2.543,0.182-4.904,0.182-7.265,0.363c-13.621-0.182-27.242-1.09-40.864-1.998c-77.368-3.087-154.737-1.816-232.105,0.545
			c-9.626-16.164-29.603-22.884-47.583-21.249c-39.229,2.543-78.095,9.989-116.961,16.164c-1.453-24.881-3.814-49.763-4.177-74.826
			c-0.363-14.348,3.269-28.877,11.079-40.864c2.179-3.632,5.267-7.265,5.085-11.805c0-4.177-3.451-8.536-7.81-8.354
			c-5.812,0.726-11.442,2.543-17.072,3.451c-2.724,0.545-5.448,1.09-7.809,2.179c-9.262,4.177-12.713,14.529-16.345,23.247
			c-1.635,4.722-2.906,9.444-3.632,14.348c-2.543,19.251-0.545,38.503,0.182,57.754c1.09,13.44,1.271,27.061,2.361,40.5
			c-150.015,24.518-299.667,50.308-449.318,76.097c-30.693,4.54-61.023,11.805-91.716,15.437c-4.54-1.635-9.081-3.088-13.984-3.814
			c-13.803-1.998-27.061-5.812-40.319-9.989c-14.348-4.904-29.24-10.534-39.592-22.157c-8.899-10.352-7.446-25.971-0.363-36.868
			c8.718-15.801,23.973-26.153,39.956-33.417c-0.182-0.908-0.727-2.543-0.908-3.451c10.534,0.908,20.523-3.451,30.693-5.812
			C338.898,144.964,540.128,91.932,741.722,40.898z M866.492,71.591c-16.345,4.177-30.33,15.801-39.411,29.603
			c-5.812,9.626-9.626,22.157-3.814,32.691c4.904,9.626,15.619,14.529,25.789,16.164c22.702,3.087,45.404-4.54,65.563-14.166
			c6.901-3.269,4.722-12.531,0.182-16.89c-12.35-13.803-23.61-28.332-35.234-42.68C876.481,72.317,871.396,70.138,866.492,71.591z
			 M617.315,134.793c-6.538,2.906-8.536,10.534-8.354,17.072c0,7.628-0.727,16.89,5.085,22.884
			c5.448,5.812,15.619,1.816,18.343-4.904c3.269-9.081,2.724-19.433-0.363-28.695C630.21,135.338,622.945,131.887,617.315,134.793z
			 M564.646,147.143c-9.807,6.538-8.718,19.978-7.083,30.148c0.726,6.175,4.722,13.984,11.987,12.895
			c8.173-0.545,12.168-9.262,12.713-16.345c0.182-7.809,0.727-16.709-4.177-23.428C575.18,146.235,569.187,144.419,564.646,147.143z
			 M493.998,164.034c-5.993,1.271-9.444,7.628-9.989,13.44c-0.545,7.628-0.545,15.801,2.543,22.884
			c2.361,5.085,9.444,7.991,14.529,4.904c5.63-2.724,7.265-9.262,7.446-14.893c0.363-6.357,0.545-13.076-1.816-19.251
			C505.076,166.395,499.265,162.762,493.998,164.034z M442.964,175.112c-4.177,1.635-7.265,5.449-7.991,9.807
			c-1.634,7.628-1.453,15.619,0.363,23.247c1.453,5.812,7.628,10.715,13.621,8.718c7.446-2.179,10.352-10.534,10.171-17.435
			c-0.182-6.901,0-14.348-3.632-20.523C453.316,174.749,447.322,172.933,442.964,175.112z M390.295,187.28
			c-6.538,3.995-7.446,12.531-7.446,19.433c0.182,5.993,0.545,12.35,3.814,17.435c3.451,5.63,12.168,6.175,16.527,1.453
			c3.632-4.177,5.085-9.807,4.904-15.074c0-7.083-0.182-15.074-4.904-20.886C400.102,185.464,394.29,184.738,390.295,187.28z
			 M340.895,197.996c-5.448,2.543-7.991,8.536-8.173,14.166c-0.182,7.446-0.545,15.619,3.996,21.794
			c3.087,4.904,10.534,5.085,14.711,1.453c3.814-2.906,5.449-7.991,5.449-12.713c0.182-7.628,0.182-16.164-4.722-22.52
			C349.613,196.906,344.709,196.724,340.895,197.996z M294.22,209.438c-7.446,1.816-10.171,10.352-10.171,17.254
			c0,6.901,0.545,14.711,5.448,20.159c4.54,4.177,12.895,2.543,15.801-2.724c4.177-7.809,3.451-17.072,1.998-25.426
			C306.025,212.707,300.395,207.44,294.22,209.438z M246.273,219.79c-6.357,1.998-9.626,8.899-9.626,15.256
			c0,7.265-0.726,15.982,4.904,21.431c3.269,3.632,9.262,3.451,12.895,0.545c5.085-3.632,5.993-10.171,5.993-15.982
			c-0.182-5.993,0-12.713-3.814-17.798C254.446,220.153,250.087,218.155,246.273,219.79z M199.598,230.868
			c-8.899,2.543-10.897,12.895-9.989,20.886c0.182,6.901,2.361,15.256,9.444,18.162c6.357,1.634,12.35-3.632,13.44-9.807
			c1.635-7.265,0.908-15.074-1.453-22.157C209.224,233.592,204.683,229.415,199.598,230.868z M152.559,242.492
			c-7.991,4.177-8.899,14.529-7.991,22.52c0.545,6.175,3.814,14.348,10.897,14.711c7.083,0.908,12.35-6.538,12.713-12.895
			c0.363-7.446,0.545-15.619-3.996-21.794C161.64,241.22,156.373,240.131,152.559,242.492z"/>
	</g>
	<path style="fill:#FFFFFF;" d="M724.287,91.206c6.901-2.361,14.348-3.088,21.431-4.904c-8.536,14.711-16.345,30.33-16.709,47.765
		c-0.545,27.061,2.361,54.122,3.996,81.182c-7.265,1.453-14.348,3.269-21.612,3.996c-1.453-23.065-3.088-45.949-3.814-69.014
		c-0.545-10.352-0.727-20.704,1.453-30.875c0.908-3.814,1.998-7.809,3.269-11.442C714.661,101.558,717.204,93.567,724.287,91.206z"
		/>
	<path style="fill:#FFFFFF;" d="M17.437,144.964c5.812,0.182,11.079-3.269,16.89-3.269c1.271,8.899-12.168,5.812-16.709,10.897
		c1.09-2.906,3.087-4.904,6.175-5.267C21.796,146.78,19.617,146.054,17.437,144.964z"/>
	<path style="fill:#FFFFFF;" d="M12.715,147.87c1.634-0.545,5.085-1.271,6.901-1.816c-1.09,2.361-1.998,4.54-3.269,6.901
		c-1.09,0-3.087,0.182-3.996,0.363C12.533,151.502,12.715,149.686,12.715,147.87z"/>
	<path style="fill:#FFFFFF;" d="M-49.034,156.587c4.722-0.363,3.996,5.812,5.993,8.536l-3.088,1.453c1.453,0,4.359-0.182,5.63-0.182
		c-1.271,1.09-3.995,3.087-5.267,3.996C-46.31,165.668-47.581,161.128-49.034,156.587z"/>
	<path style="fill:#FFFFFF;" d="M996.711,508.922c18.162-6.72,38.139-9.807,57.391-6.175c29.059,4.177,55.938,21.612,71.193,46.857
		c5.267,8.354,8.536,17.798,11.442,27.242c14.892,0.908,29.785-0.545,44.496,0.182c13.44,0.363,25.426,9.444,31.42,21.249
		c5.449,10.715,5.085,23.065,4.54,34.689c-53.758,0.908-107.335,0.182-161.094,0.363c-73.918-0.182-147.654,0.182-221.572-0.182
		c0.182-7.265-0.182-14.529,0.363-21.794c1.453-17.435,16.345-33.054,34.144-34.144c22.702-0.726,45.586,0.182,68.288-0.726
		C944.224,546.154,967.652,520.183,996.711,508.922z"/>
	<path style="fill:#FFFFFF;" d="M-181.251,553.237c24.881-12.531,55.211-12.895,80.456-1.453
		c20.341,8.718,37.958,25.063,45.586,46.13c10.352,1.09,21.068-1.635,31.056,2.361c7.265,2.906,14.348,7.809,18.162,14.892
		c3.996,7.81,3.269,17.072,3.269,25.608c-104.066,0-208.132,0-312.38,0c0.182-9.081-1.271-19.07,3.996-27.061
		c5.448-8.173,15.074-14.348,25.063-14.529c21.068-0.726,42.316-0.545,63.384-0.363
		C-215.213,579.026-200.139,562.318-181.251,553.237z"/>
</g>
<g>
	<g>
		<path style="fill:#3A2838;" d="M-50.124-22.305c10.897-3.269,22.884-7.265,33.962-2.724C-5.81-21.396-0.361-11.044,3.816-1.6
			C30.332,56.698,56.121,115.36,83.001,173.478c5.812,14.711,24.7,18.343,38.321,14.348c45.041-12.532,90.445-23.61,135.667-35.234
			c157.824-40.864,315.83-81.546,473.836-122.046c40.319-10.534,81.727-18.343,123.499-19.615
			c33.054-0.908,66.471,2.179,98.073,12.35c19.07,6.538,37.776,15.074,53.577,27.969c17.072,14.348,32.691,30.33,49.763,44.496
			c34.325-0.727,69.741,6.175,98.799,25.245c21.067,13.984,38.321,34.689,45.404,59.207c4.722,17.798,4.904,37.776-3.451,54.485
			c-9.626,20.159-26.516,35.778-44.314,48.492c-13.621,9.626-27.606,18.706-43.043,25.245c5.085,9.262,11.805,17.98,13.621,28.695
			c5.085,19.796,0.908,41.59-11.26,57.935c-11.623,15.801-29.785,26.153-48.855,29.967c-56.846,12.35-120.593-3.632-161.638-46.13
			c-31.238,5.993-62.839,9.444-94.259,14.711c-20.159,2.906-40.137,5.993-60.297,9.081c-1.635,21.431-12.168,42.498-29.603,55.211
			c-21.976,16.527-50.489,20.159-77.187,20.886c-38.139,1.09-77.005-6.72-110.786-25.063c-9.807-4.722-18.343-11.079-27.424-16.89
			c-6.538-0.545-13.076,1.271-19.615,1.816c-30.148,3.087-60.297,6.357-90.626,9.263c-0.726,19.07-7.446,38.321-21.068,51.942
			c-14.166,14.711-33.962,22.702-53.94,25.79c-34.144,5.448-69.922,3.632-102.795-7.628c-25.789-8.718-50.126-22.339-70.467-40.5
			c-2.724-1.998-4.54-6.175-8.354-5.63c-37.958,3.632-75.916,8.354-114.055,11.079c-44.314,4.359-88.629,8.536-132.943,12.895
			c-42.861,4.359-85.904,7.083-128.766,11.805c-34.507,3.814-69.014,6.357-103.521,10.715c-3.814,0.545-7.991-0.545-10.352-3.814
			c-2.724-4.722-0.908-12.35,4.904-13.621c7.628-2.361,15.437-2.906,23.247-4.54c141.842-23.428,283.684-47.22,425.526-70.83
			c8.354-0.545,14.348-6.901,21.249-10.534c22.702-12.895,48.128-20.523,73.01-28.332c-40.137-5.63-79.729-14.711-118.05-27.969
			c-27.969-9.989-55.03-23.065-78.821-40.682c-14.166-11.079-27.606-23.61-37.231-39.047
			c-72.828,7.265-145.474,14.892-218.302,22.52c-7.265,0.545-14.348,2.543-21.612,1.271c-7.265-2.724-9.081-12.168-5.993-18.525
			c2.543-4.904,7.991-6.901,12.895-7.809c71.738-10.897,143.84-19.978,215.76-30.148c-6.357-23.61-6.901-48.128-9.081-72.102
			c-3.996-55.756-9.262-111.331-13.44-167.087c-0.545-7.628,1.271-16.345,7.991-20.704C-65.743-18.309-57.57-19.762-50.124-22.305z
			 M-69.375-1.782c3.995,64.111,9.989,128.221,15.619,192.15c0.182,18.525,0.182,37.595,7.265,55.03
			c13.984-1.816,27.969-3.451,41.772-5.449c10.534-1.271,21.249-3.814,31.783-1.816l-0.545,0.182
			c9.989,8.354,3.996,24.155-4.54,31.238c-13.984,7.991-31.056,4.54-46.13,8.536c20.341,24.7,48.31,41.953,77.732,53.758
			c9.262-0.363,18.162-2.906,27.242-4.54c16.164-3.451,32.691-5.448,48.855-9.262l0.182,0.182
			c10.715-1.998,21.612-3.269,31.965-6.538c30.693-3.632,61.023-10.897,91.716-15.437c149.652-25.971,299.485-51.579,449.318-76.097
			c-1.09-13.44-1.271-27.061-2.361-40.5c-0.727-19.251-2.724-38.684-0.182-57.754c3.632,6.538,1.271,14.348,2.361,21.431
			c0.545-7.81,0.908-15.619,3.088-23.247l3.087-0.545c-2.179,10.171-1.998,20.704-1.453,30.875
			c0.908,23.065,2.361,45.949,3.814,69.014c7.265-0.726,14.348-2.543,21.612-3.995c-1.635-27.061-4.54-54.122-3.996-81.182
			c0.363-17.435,8.173-33.054,16.709-47.765c-7.083,1.816-14.529,2.361-21.431,4.904c-7.083,2.361-9.626,10.352-11.987,16.709
			c-2.543-2.179-1.271-5.812-1.635-8.536c-1.998,2.724-1.635,9.989-6.538,7.991c3.632-8.717,7.083-19.07,16.345-23.247
			c-0.727,1.453-1.998,4.177-2.724,5.63c9.081-2.179,18.706-3.269,26.879-7.991c-5.448-1.09-10.897,2.361-16.345,0.182
			c5.812-0.908,11.26-2.906,17.072-3.451c4.359-0.182,7.81,4.177,7.81,8.354c0.182,4.54-2.724,8.173-5.085,11.805
			c-7.991,11.987-11.442,26.516-11.079,40.864c0.363,25.063,2.724,49.763,4.177,74.826c38.866-6.175,77.732-13.439,116.961-16.164
			c17.98-1.816,37.958,4.904,47.583,21.249c1.998,4.54,4.54,9.262,4.359,14.529c-64.11,4.359-127.313,16.527-190.878,26.153
			c-41.59,6.357-83.18,13.076-124.589,20.341c-51.397,8.536-102.795,16.709-154.192,25.608
			c-75.007,12.531-150.015,24.518-224.841,37.776c-25.608,3.632-51.034,9.444-77.005,12.531c-2.724,0.363-5.448,0.545-7.628,2.179
			c29.785,8.173,60.66,11.987,91.353,15.982c11.442,1.816,22.52-1.634,33.781-3.269c33.236-5.267,69.559-5.812,99.889,10.897
			c1.816,1.09,3.814,1.635,6.175,1.453c30.33-3.269,60.478-7.809,90.808-10.715c4.177-0.545,8.536-0.545,12.168-2.906
			c18.162-10.715,38.321-17.072,57.935-24.7c10.897-2.179,21.249-6.175,31.965-8.717c39.411-9.807,80.456-18.162,121.138-11.987
			c6.538,0.727,12.713,3.269,19.07,3.814c7.628,3.632,15.982,5.993,22.702,11.624c14.166,12.168,24.155,28.877,27.969,47.038
			c44.496-7.083,89.173-13.44,133.669-20.523c58.117-7.991,115.145-23.61,168.903-47.039c33.962-14.166,68.106-29.422,98.073-51.034
			c16.527-12.35,32.691-27.424,39.229-47.583h0.363c2.543-7.991,3.632-16.527,2.361-24.7c-4.54-26.697-22.339-49.763-45.041-63.747
			c-24.155-15.437-53.395-21.431-81.727-21.067c-24.881,0.182-49.944,0.726-74.826,1.635c-16.164,0.545-31.783,5.812-47.039,10.715
			c-2.906,0.727-6.538,2.906-8.718-0.182c-10.17-10.534-18.706-22.52-28.877-33.236c-4.54-5.63-10.534-10.534-13.258-17.435
			c-1.09-5.267,4.722-7.083,8.899-7.083c32.872-1.635,65.927-3.451,98.799-5.63c-6.357-5.63-13.621-9.989-21.249-13.803
			c-33.417-16.527-71.194-23.247-108.425-22.884c-42.317-0.363-84.452,7.265-125.315,17.98
			c-201.776,51.034-402.824,104.066-604.6,155.282c-10.171,2.361-20.159,6.72-30.693,5.812c-6.357-1.271-13.076-2.179-18.525-5.993
			c-10.534-6.175-15.619-17.798-20.523-28.332C41.048,110.82,15.803,52.885-10.895-4.506c-3.814-8.718-14.348-11.987-23.065-9.626
			C-45.947-11.771-58.115-7.594-69.375-1.782z M985.451,67.414c8.173,9.081,17.617,17.072,25.971,25.789
			c3.632,3.451,6.901,7.628,11.079,10.352c6.901,0.363,13.984-0.363,20.886-0.182c-10.534-12.532-23.792-22.702-35.597-33.962
			C1002.341,62.873,992.897,68.14,985.451,67.414z M975.28,67.959c-24.7,1.816-49.581,1.816-74.463,3.995
			c-3.996-3.087-5.812,4.722-0.908,3.451l-0.727,1.453c10.897,11.987,21.249,24.336,31.964,36.505
			c1.816,1.634,3.632,4.904,6.538,3.632c6.901-1.816,13.44-4.359,20.341-6.175c17.435-5.993,36.142-6.175,54.303-6.538
			C999.798,92.477,988.357,79.219,975.28,67.959z M742.085,220.153c-0.908,4.722-1.816,10.534-6.72,12.895
			c-6.357,3.087-13.621,4.904-20.704,4.177c-5.448-1.635-8.536-6.901-11.442-11.442c-2.724,0.545-5.448,1.271-8.173,1.816
			c-88.992,15.256-178.165,29.785-266.976,45.404c-85.541,14.529-171.264,28.877-256.805,44.314
			c-25.245,4.359-49.945,10.534-75.371,13.984v0.363c-9.626,1.453-19.251,2.724-28.695,4.904c2.179,2.906,5.812,4.904,9.626,4.54
			c9.626,3.451,19.251,7.265,29.24,9.989c5.267,1.453,10.715,3.451,16.164,1.998c7.809-1.816,15.801-3.088,23.61-4.722
			c37.595-5.812,75.007-12.168,112.602-18.343c146.383-24.7,292.765-49.036,439.329-72.828
			c67.924-9.989,135.486-23.065,203.773-29.24c-5.812-12.713-18.525-22.52-32.872-22.52
			C826.173,204.534,784.402,215.068,742.085,220.153z M711.937,225.42c5.993,6.175,18.888,4.54,22.339-3.632
			C727.011,224.148,719.565,225.601,711.937,225.42z M2.726,247.214c-51.579,6.357-103.158,12.532-154.737,19.978
			c-38.684,5.085-77.187,11.079-115.871,15.801c-0.726,3.632-1.816,7.446-5.993,8.354c-0.727-0.727-2.361-1.998-3.087-2.724
			c0.182,0.908,0.545,2.906,0.726,3.814c95.712-10.715,191.605-19.796,287.135-30.693c7.809-0.182,11.442-8.536,11.623-15.256
			C15.984,245.398,9.264,246.487,2.726,247.214z M1089.154,318.77c7.991,14.348,10.715,31.601,7.265,47.765
			c-1.816,9.989-7.265,18.706-12.168,27.606l-0.545-0.182c-8.173,11.26-22.884,17.617-36.505,14.529
			c-10.897-2.543-20.704-9.262-27.787-17.798l-0.545,0.182c-7.991-10.715-12.532-23.792-13.621-37.05
			c-29.603,9.989-59.752,18.525-90.808,22.884c8.173,8.173,18.343,14.893,29.059,19.615c29.785,16.527,64.837,21.249,98.436,18.888
			c19.251-1.271,39.956-4.177,54.848-17.798c14.529-12.35,21.975-32.146,19.07-51.034c-1.998-11.805-6.538-23.61-15.074-32.146
			C1096.781,315.865,1092.968,317.318,1089.154,318.77z M591.526,340.383c-35.597,6.175-70.467,16.346-104.066,29.422
			c16.527-0.545,32.872-6.538,49.399-3.269c12.713,2.906,23.61,13.984,25.063,27.061c1.816,12.895-6.538,25.608-17.798,31.056
			c-9.444,5.449-20.704,5.63-31.238,7.446c10.352,5.267,20.159,12.531,31.42,15.619c3.996,2.543,8.354,3.996,12.713,5.448
			c31.964,10.897,66.108,15.256,99.707,11.987c20.341-1.998,41.772-5.267,58.299-18.525c6.357-5.267,11.805-11.442,15.619-18.888
			c14.166-25.063,6.538-60.115-16.89-77.005l0.182-0.363c-5.993-3.451-12.35-6.901-18.888-9.263
			c-8.899-2.724-18.162-5.448-27.606-5.993C642.196,331.847,616.407,335.298,591.526,340.383z M1012.693,350.553
			c0,9.807,2.543,19.796,7.628,28.151c1.271,2.361,4.359,4.722,6.901,2.543c9.626-6.901,17.254-19.07,13.984-31.42
			c-0.908-2.724-1.271-7.265-5.085-6.901C1028.131,344.742,1020.684,348.374,1012.693,350.553z M369.046,393.596
			c7.446,6.175,11.805,14.893,16.709,23.065c55.756-5.448,111.512-10.715,167.269-16.164c2.179-10.171-5.085-19.796-13.984-23.792
			c-5.812-2.543-12.531-2.18-18.706-1.635C469.843,381.246,419.535,387.421,369.046,393.596z M228.657,389.056l1.453,0.545
			c-2.906-0.726-5.63,0.727-8.354,1.271c-16.709,4.54-33.599,8.717-49.944,14.348c-13.076,4.359-26.879,7.991-38.684,15.437
			c14.711-1.635,29.24-6.357,44.133-4.722c17.617,1.816,30.511,24.518,19.615,39.592c-9.989,15.074-30.148,13.258-45.767,14.893
			c8.354,8.536,18.888,14.529,29.059,20.341c4.54,2.179,8.717,5.267,13.803,6.175c9.989,5.993,21.249,8.899,32.328,12.168
			c33.599,8.536,69.196,9.262,102.976,1.634c11.26-2.361,21.976-7.265,30.693-14.711c20.704-15.801,27.969-45.404,19.251-69.559
			c-4.722-15.801-16.89-28.695-31.783-35.415l-0.182-0.545c-5.448-2.361-11.079-4.359-16.89-6.175
			c-14.348-4.359-29.24-4.54-43.951-4.177C266.614,381.246,247.545,384.515,228.657,389.056z M388.115,423.2
			c1.09,4.359,1.998,8.718,2.906,13.076c43.043-4.54,86.086-9.262,129.129-14.529c10.715-1.271,23.247-2.906,29.603-13.076
			C495.814,413.029,442.055,419.022,388.115,423.2z M157.281,426.105c-53.395,8.536-106.79,17.254-160.185,26.334
			c-84.088,13.076-167.995,27.787-252.083,40.682c-31.056,5.63-62.476,9.807-93.351,15.801c2.543,1.453,5.448,1.271,7.991,0.908
			c16.164-2.179,32.509-3.996,48.673-6.175c161.457-22.52,323.095-43.043,485.096-61.568c-1.816-7.083-5.812-14.348-13.076-16.89
			C172.719,423.563,164.909,425.016,157.281,426.105z M-30.146,475.687c-29.059,3.996-58.299,6.538-87.176,11.26
			c-20.523,2.361-41.045,5.085-61.75,6.72c3.814,0.182,7.628,0.363,11.442,0c20.523-2.361,41.045-3.451,61.386-6.356
			c90.808-9.807,181.616-18.706,272.242-28.514c9.081-0.908,19.615-1.453,25.245-9.807
			C117.689,457.707,43.771,466.424-30.146,475.687z"/>
	</g>
	<g>
		<path style="fill:#3A2838;" d="M866.492,71.591c4.904-1.453,9.989,0.727,13.076,4.722c11.624,14.348,23.065,28.877,35.234,42.68
			c4.54,4.359,6.72,13.621-0.182,16.89c-20.341,9.626-42.861,17.254-65.563,14.166c-10.17-1.634-20.886-6.538-25.789-16.164
			c-5.63-10.534-1.998-23.065,3.814-32.691C836.162,87.392,850.147,75.95,866.492,71.591z M831.985,105.735
			c-4.904,8.536-6.901,21.067,0.182,28.877c5.993,6.901,15.437,9.444,24.155,9.626c18.162,0.908,35.96-4.904,52.124-12.531
			c1.998-1.09,5.449-3.269,3.451-5.812c-7.446-10.715-17.435-19.251-25.063-29.785c-5.63-6.538-9.989-14.348-17.435-19.07
			C853.597,80.853,840.884,92.477,831.985,105.735z"/>
	</g>
	<g>
		<path style="fill:#3A2838;" d="M-30.691,132.977c-0.727-10.897,4.177-23.973,15.437-27.787
			c10.534-3.088,20.523,4.722,25.245,13.621c7.628-3.269,15.437-5.812,23.247-8.354c3.269,13.984,6.175,27.969,9.081,41.953
			c-8.536,2.361-17.072,4.904-25.79,6.72c-0.545,11.805-9.989,25.245-23.065,23.61c-7.265-0.727-11.805-7.083-15.074-12.895
			c-10.171,3.087-20.341,6.357-30.148,10.17c0-12.531-3.814-24.7-4.722-37.05c-1.635-3.451,5.63-6.72,5.993-2.361
			c-0.908,0.545-2.543,1.453-3.451,1.998c4.359,0,8.354-1.635,12.531-2.361c-2.906-0.545-5.993-0.908-8.718-2.361
			C-43.586,136.428-37.229,134.249-30.691,132.977z M-19.249,117.177c-3.269,4.359-4.359,9.626-4.54,15.074
			c1.271,2.179,2.361,4.54,3.269,7.083c1.09,0.727,3.087,2.179,4.177,2.724c0-3.632-1.09-7.809,1.271-11.079
			c1.453-0.182,4.54-0.545,5.993-0.727l-1.453,0.727c-4.722,3.995-5.812,10.715-1.453,15.437c-3.632,0.727-8.173,0.363-10.715,3.632
			c-0.726,3.814,1.271,7.446,2.724,10.715c2.724-1.09,5.267-1.998,7.991-3.087c-0.182-3.087-0.545-6.175-0.726-9.262
			c1.09,3.451,2.361,6.72,3.632,10.171c-0.182,2.724-0.182,5.267-0.182,7.991l-2.543,1.271c1.635,5.993,7.991,7.628,13.258,4.722
			c4.722-2.361,7.809-7.628,6.538-12.713c0.182-2.543,0.182-5.085,0.182-7.446c-3.269,1.816-6.357,3.632-9.626,5.449
			c-0.726,0-2.361,0-3.087,0l-2.906,0.363c5.812-3.269,12.531-5.267,16.164-11.26c-0.545-4.359,0.363-9.262-1.998-13.258
			c1.635-1.271,3.269-2.543,4.904-3.996c0.363,2.543,0.727,4.904,1.09,7.446c5.63-3.814,12.35-5.267,18.888-7.446
			c-0.545-2.906-1.09-5.63-1.635-8.536c-3.269,0.908-6.538,1.998-9.626,3.087c-1.271-2.906,3.087-3.632,4.54-5.63
			c1.271,0,3.996-0.182,5.267-0.363c-6.175-1.453-12.895,0-17.98,3.632c1.635,0.182,4.722,0.182,6.357,0.363
			c-0.363,0.726-1.09,2.361-1.271,3.087c-1.816,0.182-5.63,0.545-7.628,0.908c-2.906-5.993-9.081-9.444-14.711-12.713
			C-10.168,112.636-17.07,111.547-19.249,117.177z M12.17,137.699c0.726,2.361,1.271,4.54,1.998,6.901
			c6.72-1.453,13.44-3.269,19.433-6.357c-0.908-2.543-1.635-5.085-2.543-7.628C24.883,132.796,18.89,136.428,12.17,137.699z
			 M-50.85,145.509c0.726,3.269,1.271,6.356,1.998,9.626c7.083-2.543,14.166-5.085,20.886-8.354
			c-0.182-2.543-0.545-4.904-0.726-7.265C-36.321,140.787-43.223,144.782-50.85,145.509z M17.437,144.964
			c1.998,0.908,4.177,1.816,6.357,2.361c-3.087,0.363-5.267,2.361-6.175,5.267c4.359-5.085,17.98-1.998,16.709-10.897
			C28.516,141.876,23.431,145.327,17.437,144.964z M12.715,147.87c-0.182,1.816-0.363,3.632-0.545,5.449
			c1.09,0,3.087-0.182,3.996-0.363c1.09-2.179,2.179-4.54,3.269-6.901C17.982,146.598,14.531,147.325,12.715,147.87z
			 M-46.129,156.224c1.271,2.724,2.179,5.63,3.996,8.173c2.179,0.182,3.087-2.543,4.359-3.995c1.09,0.545,3.269,1.453,4.359,1.998
			c0.182-0.908,0.363-2.724,0.363-3.632l3.451,1.271c-1.453,1.271-2.724,2.543-3.996,3.996c3.269-0.726,6.357-1.816,9.444-2.906
			c-1.09-3.814-1.816-7.809-2.543-11.805C-33.96,149.323-39.227,155.134-46.129,156.224z M-49.034,156.587
			c1.453,4.54,2.543,9.081,3.269,13.621c1.271-1.09,3.996-3.088,5.267-3.996c-1.453,0-4.359,0.182-5.63,0.182l3.088-1.453
			C-44.857,162.399-44.131,156.224-49.034,156.587z M-37.048,163.307c0.182,0.545,0.726,1.816,0.908,2.361l1.453-0.727v-1.634
			l-1.453-0.727L-37.048,163.307z"/>
	</g>
	<path style="fill:#3A2838;" d="M4.542,126.802c0.726-0.726,2.179-2.361,2.724-3.087c-0.726,3.632-1.453,7.083-2.179,10.715
		c-2.906,1.634-5.267,3.995-7.446,6.357c-0.726-3.088-1.271-6.175-1.998-9.262l-2.361-0.726h1.271
		c1.271,0.363,3.814,1.09,5.085,1.635C1.273,130.435,2.908,128.618,4.542,126.802z"/>
	<g>
		<path style="fill:#3A2838;" d="M617.315,134.793c5.63-2.906,12.895,0.545,14.711,6.357c3.088,9.081,3.632,19.433,0.363,28.695
			c-2.724,6.72-12.713,10.715-18.343,4.904c-5.812-5.993-5.085-15.074-5.085-22.884
			C608.779,145.327,610.777,137.699,617.315,134.793z M615.317,146.598c-0.727,8.173-2.179,18.162,3.996,24.7
			c3.632,1.271,7.809-0.727,8.354-4.722c1.453-8.899,1.998-19.07-3.269-26.879C619.858,139.515,615.499,141.876,615.317,146.598z"/>
	</g>
	<g>
		<path style="fill:#3A2838;" d="M564.646,147.143c4.54-2.906,10.715-0.908,13.621,3.269c4.904,6.72,4.359,15.437,4.177,23.428
			c-0.545,7.265-4.54,15.801-12.713,16.345c-7.265,1.09-11.26-6.72-11.987-12.895C555.929,167.303,554.839,153.681,564.646,147.143z
			 M564.465,156.224c-2.543,8.899-1.816,19.251,2.543,27.606c1.635-0.182,4.722-0.363,6.175-0.363
			c3.087-9.807,2.724-20.523,0.182-30.33C570.095,152.955,565.555,152.047,564.465,156.224z"/>
	</g>
	<g>
		<path style="fill:#3A2838;" d="M493.998,164.034c5.267-1.271,10.897,2.179,12.713,7.265c2.361,6.175,2.179,12.713,1.816,19.251
			c-0.363,5.63-1.998,12.168-7.446,14.893c-5.085,3.088-11.987,0.182-14.529-4.904c-3.087-7.265-2.906-15.256-2.543-22.884
			C484.735,171.843,488.004,165.486,493.998,164.034z M490.729,173.841c-1.09,8.899-1.816,19.07,3.814,26.697
			c2.361-0.908,6.72,0.182,7.265-3.269c1.453-8.717,1.09-17.435-1.09-25.971C497.267,170.572,492.363,169.482,490.729,173.841z"/>
	</g>
	<g>
		<path style="fill:#3A2838;" d="M442.964,175.112c4.359-2.179,10.352-0.363,12.531,3.995c3.632,6.175,3.632,13.621,3.632,20.523
			c0.182,7.083-2.906,15.256-10.171,17.435c-5.993,1.998-12.168-3.087-13.621-8.718c-1.816-7.628-1.998-15.619-0.363-23.247
			C435.699,180.561,438.786,176.747,442.964,175.112z M444.235,181.469c-3.996,2.724-3.996,8.173-4.177,12.531
			c0.182,5.993,0.182,12.713,4.54,17.435c1.816,0.363,3.451,0.182,5.085-0.727c4.722-7.083,2.906-15.982,1.998-23.973
			C451.136,183.648,447.686,177.836,444.235,181.469z"/>
	</g>
	<g>
		<path style="fill:#3A2838;" d="M390.295,187.28c4.177-2.543,9.989-1.816,12.895,2.179c4.722,5.812,4.722,13.803,4.904,20.886
			c0.182,5.449-1.271,11.079-4.904,15.074c-4.359,4.904-13.076,4.359-16.527-1.453c-3.269-5.085-3.632-11.442-3.814-17.435
			C382.667,199.63,383.757,191.276,390.295,187.28z M389.024,206.713c0,6.538,1.09,17.072,10.171,15.982
			c2.361-7.628,2.179-15.619,1.271-23.247c-0.545-2.906-1.453-7.446-5.267-6.901C388.66,193.274,389.024,201.81,389.024,206.713z"/>
	</g>
	<g>
		<path style="fill:#3A2838;" d="M340.895,197.996c3.814-1.453,8.717-1.09,11.26,2.361c4.904,6.357,4.904,14.893,4.722,22.52
			c0,4.722-1.634,9.807-5.449,12.713c-4.177,3.632-11.623,3.269-14.711-1.453c-4.54-6.175-4.359-14.529-3.996-21.794
			C332.904,206.532,335.628,200.538,340.895,197.996z M341.622,203.989c-5.085,6.901-3.087,16.709-1.09,24.337
			c1.09,3.814,5.267,2.906,8.173,3.087c3.814-8.718,2.543-18.888-0.182-27.787C346.162,203.626,343.801,203.263,341.622,203.989z"/>
	</g>
	<g>
		<path style="fill:#3A2838;" d="M294.22,209.438c6.175-1.998,11.805,3.269,12.895,9.081c1.634,8.354,2.361,17.798-1.998,25.426
			c-2.906,5.267-11.26,6.901-15.801,2.724c-4.722-5.449-5.448-13.258-5.448-20.159C284.049,219.79,286.774,211.072,294.22,209.438z
			 M292.404,238.314c0.908,3.814,4.359,4.359,7.628,4.54c2.18-7.628,2.18-15.619,0.727-23.428c-0.545-2.543-2.543-6.357-5.812-4.359
			C288.045,220.335,290.224,230.868,292.404,238.314z"/>
	</g>
	<g>
		<path style="fill:#3A2838;" d="M246.273,219.79c3.814-1.635,8.173,0.182,10.352,3.451c3.814,5.085,3.632,11.805,3.814,17.798
			c0,5.63-1.09,12.35-5.993,15.982c-3.814,2.906-9.626,2.906-12.895-0.545c-5.63-5.63-4.904-14.348-4.904-21.431
			C236.648,228.689,239.917,221.787,246.273,219.79z M243.549,246.487c0.727,4.359,4.359,7.446,8.718,6.72
			c2.361-6.72,1.998-14.166,1.816-21.067c0.363-3.088-2.361-4.904-4.177-6.901C241.188,228.144,242.278,239.223,243.549,246.487z"/>
	</g>
	<g>
		<path style="fill:#3A2838;" d="M199.598,230.868c5.085-1.453,9.807,2.724,11.442,7.265c2.543,7.083,3.269,14.893,1.453,22.157
			c-1.09,6.175-7.083,11.442-13.44,9.807c-7.083-2.906-9.262-11.26-9.444-18.162C188.701,243.945,190.699,233.411,199.598,230.868z
			 M196.874,257.566c0.908,3.269,3.269,8.173,7.446,5.993c4.177-5.993,3.087-13.803,1.998-20.704
			c-0.363-3.269-3.088-5.085-5.449-6.901C194.331,241.22,195.421,250.301,196.874,257.566z"/>
	</g>
	<g>
		<path style="fill:#3A2838;" d="M152.559,242.492c3.814-2.179,9.081-1.09,11.623,2.543c4.359,6.357,4.359,14.348,3.996,21.794
			c-0.363,6.538-5.63,13.803-12.713,12.895c-7.265-0.363-10.352-8.536-10.897-14.711
			C143.66,257.021,144.568,246.487,152.559,242.492z M151.47,251.936c-2.724,8.536-0.545,17.435,3.814,24.881
			c0.182-0.545,0.363-1.816,0.363-2.361c2.724-1.271,6.175-2.724,6.175-6.357c0.363-6.72,1.09-14.166-2.724-20.159
			C156.01,246.124,152.923,249.211,151.47,251.936z"/>
	</g>
	<g>
		<path style="fill:#3A2838;" d="M633.297,363.266c15.437-13.44,36.687-23.247,57.391-17.798
			c6.901,4.177,12.713,9.989,17.254,16.527c14.166,24.155,11.442,56.846-6.72,78.277c-7.991,9.989-20.886,17.072-33.962,15.256
			c-12.168-1.09-23.247-7.628-31.783-16.164C615.317,419.749,614.227,384.152,633.297,363.266z M636.93,374.163
			c-3.632,2.361-5.448,6.72-6.901,10.715c-4.904,12.713-3.088,27.606,3.814,39.047c1.453,1.816,3.087,4.904,5.812,3.632
			c12.35-5.812,22.339-19.433,19.251-33.599C656.181,383.971,647.826,373.8,636.93,374.163z"/>
	</g>
	<g>
		<path style="fill:#3A2838;" d="M286.592,398.137c11.805-6.901,25.608-10.897,39.229-9.081c6.72,2.543,12.531,6.72,17.798,11.442
			c22.52,23.973,21.249,64.292,0.182,88.81c-8.354,10.534-21.794,17.617-35.597,15.982c-11.624-0.727-22.157-6.72-30.512-14.529
			c-12.35-11.079-19.251-27.969-18.343-44.496c0.545-14.166,5.993-28.151,15.256-38.866
			C278.238,404.13,282.415,401.043,286.592,398.137z M267.522,455.164c1.271,8.536,3.814,17.617,10.897,23.065
			c13.076-7.083,24.7-21.794,20.523-37.413c-3.632-9.989-12.713-19.615-23.973-19.615
			C268.975,431.372,265.706,443.359,267.522,455.164z"/>
	</g>
</g>
<g>
	<g>
		<path style="fill:#CCDBE1;" d="M-69.375-1.782c11.26-5.63,23.428-9.989,35.597-12.895c8.718-2.361,19.251,0.908,23.065,9.626
			C15.984,52.34,41.229,110.275,67.382,167.848c5.085,10.534,10.171,22.157,20.523,28.332c5.449,3.632,12.168,4.722,18.525,5.993
			c0.182,0.908,0.726,2.543,0.908,3.451c-15.982,7.265-31.238,17.617-39.955,33.417c-7.083,10.897-8.354,26.697,0.363,36.868
			c10.352,11.623,25.245,17.072,39.592,22.157c13.258,4.177,26.516,7.991,40.319,9.989c4.722,0.545,9.444,2.179,13.984,3.814
			c-10.352,3.269-21.249,4.54-31.964,6.538l-0.182-0.182c-4.722-3.088-10.715-2.543-16.164-2.724
			c-12.895,0-25.245-5.267-36.868-10.171c-11.987-5.085-23.792-13.258-28.332-26.153c-4.359-11.987-0.908-25.426,6.357-35.415
			c4.904-8.354,13.258-13.803,19.615-21.067c-16.527,2.179-31.056,11.079-47.039,15.256c-10.534-1.816-21.249,0.545-31.783,1.816
			c-13.984,1.998-27.787,3.451-41.772,5.449c-7.083-17.435-7.083-36.505-7.265-55.03C-59.387,126.257-65.38,62.329-69.375-1.782z
			 M-30.691,132.977c-6.538,1.271-12.895,3.451-19.433,5.085c2.724,1.271,5.812,1.816,8.718,2.361
			c-4.177,0.908-8.173,2.543-12.531,2.361c0.908-0.545,2.724-1.453,3.451-1.998c-0.182-4.359-7.628-1.09-5.993,2.361
			c0.908,12.532,4.54,24.518,4.722,37.05c9.807-3.814,19.978-7.083,30.148-10.171c3.269,5.812,7.809,12.168,15.074,12.895
			c13.076,1.635,22.52-11.987,23.065-23.61c8.717-1.816,17.072-4.359,25.789-6.72c-3.087-13.984-5.993-27.969-9.081-41.953
			c-7.81,2.543-15.619,5.085-23.247,8.354c-4.722-8.718-14.711-16.709-25.245-13.621C-26.332,109.004-31.236,122.08-30.691,132.977z
			 M-50.85,184.738c-0.727,6.175-0.727,12.35,0.182,18.525C-49.942,197.088-49.942,190.913-50.85,184.738z M-49.216,205.624
			c-1.453,2.179-1.453,5.449,0,7.628C-46.673,212.707-46.673,205.987-49.216,205.624z"/>
	</g>
	<path style="fill:#CCDBE1;" d="M12.17,137.699c6.72-1.09,12.531-4.722,18.888-7.265c0.908,2.543,1.635,5.085,2.543,7.628
		c-6.175,3.269-12.713,4.904-19.433,6.357C13.442,142.24,12.897,139.879,12.17,137.699z"/>
	<path style="fill:#CCDBE1;" d="M-50.85,145.509c7.628-0.727,14.529-4.54,22.157-5.993c0.182,2.361,0.545,4.904,0.726,7.265
		c-6.72,3.269-13.803,5.812-20.886,8.354C-49.579,151.865-50.306,148.596-50.85,145.509z"/>
	<path style="fill:#CCDBE1;" d="M-46.129,156.224c6.901-1.09,12.168-6.901,19.433-6.72c0.726,3.996,1.453,7.809,2.543,11.805
		c-3.087,1.09-6.175,1.998-9.444,2.906c1.271-1.453,2.543-2.724,3.996-3.995l-3.451-1.271c-0.182,0.908-0.363,2.724-0.363,3.632
		c-1.09-0.545-3.269-1.453-4.359-1.998c-1.271,1.271-2.179,4.177-4.359,3.996C-43.949,161.854-44.676,158.948-46.129,156.224z"/>
	<path style="fill:#CCDBE1;" d="M-37.048,163.307l0.908-0.908l1.453,0.726v1.634l-1.453,0.727
		C-36.321,164.942-36.866,163.852-37.048,163.307z"/>
	<path style="fill:#CCDBE1;" d="M905.721,219.245c77.369-2.361,154.737-3.632,232.105-0.545c13.621,1.09,27.242,1.998,40.864,1.998
		c-6.72,4.722-14.893,5.812-22.52,7.991c-26.516,7.083-53.214,13.076-79.73,19.978c-37.594,9.262-75.007,19.07-112.602,27.424
		c-38.684,8.354-77.55,16.527-116.416,24.518c-39.956,7.446-80.093,14.893-120.411,21.431c-10.534,1.998-21.249,2.724-31.42,5.812
		c-6.538-0.545-12.713-3.087-19.07-3.814c-40.682-6.175-81.727,2.179-121.138,11.987c-10.715,2.543-21.249,6.538-31.964,8.718
		c-10.534-1.998-21.249,0-31.783,0.363c-69.922,6.72-140.389,10.897-210.493,5.993c-21.794-1.998-43.769-2.724-65.018-7.809
		c74.826-13.258,149.833-25.245,224.841-37.776c51.397-8.899,102.795-17.072,154.192-25.608
		c41.408-7.083,82.998-13.984,124.589-20.341c63.384-9.626,126.768-21.794,190.878-26.153
		C910.262,228.507,907.719,223.967,905.721,219.245z"/>
	<path style="fill:#CCDBE1;" d="M2.726,247.214c6.72-0.727,13.44-1.816,19.978-0.545c-0.182,6.72-3.814,15.074-11.623,15.256
		c-95.712,11.079-191.605,20.159-287.135,30.693c-0.182-0.908-0.545-2.906-0.727-3.814c0.727,0.727,2.361,1.998,3.088,2.724
		c4.177-1.09,5.085-4.722,5.993-8.354c38.684-4.722,77.187-10.897,115.871-15.801C-100.613,259.745-48.853,253.57,2.726,247.214z"/>
	<path style="fill:#CCDBE1;" d="M1089.154,318.77c3.814-1.271,7.81-2.906,11.442-4.54c8.536,8.536,13.076,20.341,15.074,32.146
		c2.906,18.888-4.722,38.684-19.07,51.034c-3.996-1.271-8.173-2.543-12.35-3.451c4.904-8.718,10.352-17.435,12.168-27.606
		C1099.869,350.19,1097.145,333.118,1089.154,318.77z"/>
	<path style="fill:#CCDBE1;" d="M631.299,359.271c4.359-10.171,14.348-15.982,21.794-23.428c4.722-0.182,9.626-0.545,14.348-0.545
		c9.444,0.545,18.525,3.269,27.606,5.993c-1.453,1.453-2.906,2.724-4.359,4.177c-20.704-5.267-41.953,4.54-57.391,17.798
		c-19.07,20.886-18.162,56.301,2.361,75.915c-24.518,9.807-51.216,10.352-77.187,8.718c-4.722-0.363-9.444-0.545-14.166-0.182
		c-11.26-3.088-21.068-10.352-31.42-15.619c10.534-1.816,21.612-2.179,31.238-7.446c11.442-5.448,19.615-18.162,17.798-31.056
		c-1.635-13.076-12.35-24.336-25.063-27.061c-16.527-3.269-32.873,2.906-49.4,3.269c33.599-13.076,68.651-23.247,104.066-29.422
		c5.448,3.451,11.623,5.812,17.617,8.173C616.77,351.461,623.672,356.183,631.299,359.271z"/>
	<path style="fill:#CCDBE1;" d="M712.663,354.004c0.363-0.726,0.908-2.361,1.271-3.087c23.429,16.89,30.875,51.942,16.89,77.005
		c-3.814,7.265-9.444,13.621-15.619,18.888c-3.269-4.54-8.173-6.175-13.621-6.538c18.162-21.249,20.886-54.122,6.72-78.277
		c1.816-0.908,3.814-1.816,5.812-2.724C713.39,357.636,713.027,355.82,712.663,354.004z"/>
	<path style="fill:#CCDBE1;" d="M914.076,376.706c30.875-4.54,61.205-13.076,90.808-22.884c1.09,13.258,5.63,26.334,13.621,37.05
		c-24.155,8.536-50.308,8.354-75.371,5.448C932.419,391.598,922.43,385.06,914.076,376.706z"/>
	<path style="fill:#CCDBE1;" d="M369.046,393.596c50.489-6.175,100.979-12.35,151.286-18.525c6.175-0.545,12.713-0.908,18.706,1.634
		c8.899,3.996,16.164,13.621,13.984,23.792c-55.756,5.449-111.512,10.715-167.268,16.164
		C380.851,408.489,376.492,399.771,369.046,393.596z"/>
	<path style="fill:#CCDBE1;" d="M286.047,380.157c14.711-0.182,29.785,0,43.951,4.177c-1.453,1.634-2.906,3.087-4.177,4.722
		c-13.621-1.634-27.424,2.179-39.229,9.081c-3.996,0.908-7.991,1.453-11.805,2.179c3.269-6.72,8.899-11.805,14.711-16.164
		C288.227,382.699,287.137,381.428,286.047,380.157z"/>
	<path style="fill:#CCDBE1;" d="M221.755,390.69c2.724-0.545,5.63-1.998,8.354-1.271c15.256,4.54,29.967,10.897,44.314,17.798
		c-9.262,10.715-14.711,24.7-15.256,38.866c-0.908,16.527,6.175,33.417,18.343,44.496c-11.805,0.908-23.065,5.267-35.052,5.993
		c-16.345,2.179-32.509-0.908-48.855-0.182c-4.904-0.908-9.262-3.996-13.803-6.175c-10.171-5.993-20.704-11.987-29.059-20.341
		c15.619-1.635,35.778,0.182,45.767-14.893c10.897-15.074-1.816-37.776-19.614-39.592c-14.893-1.453-29.422,3.087-44.133,4.722
		c11.805-7.628,25.608-11.079,38.684-15.437C188.156,399.59,205.047,395.231,221.755,390.69z"/>
	<path style="fill:#CCDBE1;" d="M347.615,393.415c-0.182-0.545-0.545-1.816-0.545-2.361c14.893,6.72,27.061,19.615,31.783,35.415
		c8.717,24.155,1.271,53.758-19.251,69.559c-5.085-2.543-10.534-4.722-15.982-6.538c21.067-24.518,22.157-64.837-0.182-88.81
		c3.087-0.908,6.175-1.634,9.081-2.361C350.884,396.502,349.25,395.049,347.615,393.415z"/>
	<path style="fill:#CCDBE1;" d="M157.281,426.105c7.628-1.09,15.437-2.724,23.065-1.09c7.265,2.543,11.26,9.807,13.076,16.89
		c-162.001,18.525-323.64,39.047-485.096,61.568c-16.164,2.179-32.509,3.996-48.673,6.175c-2.724,0.363-5.63,0.545-7.991-0.908
		c31.056-5.993,62.294-10.171,93.351-15.801c84.088-12.895,167.995-27.606,252.083-40.682
		C50.491,443.359,103.886,434.642,157.281,426.105z"/>
</g>
<g>
	<path style="fill:#00BAEF;" d="M985.451,67.414c7.446,0.727,16.89-4.54,22.339,1.998c11.805,11.26,24.881,21.431,35.597,33.962
		c-6.901-0.182-13.984,0.545-20.886,0.182c-4.177-2.906-7.446-6.902-11.079-10.352C1003.068,84.486,993.805,76.495,985.451,67.414z"
		/>
	<path style="fill:#00BAEF;" d="M975.28,67.959c13.076,11.079,24.518,24.337,37.05,36.142c-18.162,0.363-36.868,0.726-54.303,6.538
		c-6.901,1.816-13.44,4.54-20.341,6.175c-2.906,1.09-4.722-1.998-6.538-3.632c-10.715-12.168-21.067-24.518-31.964-36.505
		l0.727-1.453c0.182-0.908,0.727-2.543,0.908-3.451C925.699,69.956,950.581,69.775,975.28,67.959z"/>
	<path style="fill:#00BAEF;" d="M831.985,105.735c9.081-13.258,21.794-24.7,37.594-28.877c7.265,4.722,11.805,12.532,17.435,19.07
		c7.628,10.534,17.617,19.07,25.063,29.785c2.179,2.724-1.271,4.722-3.451,5.812c-16.164,7.809-33.962,13.44-52.124,12.531
		c-8.718-0.182-18.343-2.724-24.155-9.626C824.902,126.621,827.082,114.271,831.985,105.735z"/>
	<path style="fill:#00BAEF;" d="M-19.249,117.177c5.993-4.54,16.89-4.359,18.888,4.177c-3.814,0.908-8.536,0.545-11.26,3.632
		c-3.814,4.177-5.63,9.626-8.899,14.166c-0.908-2.543-1.998-4.722-3.269-7.083C-23.608,126.802-22.337,121.535-19.249,117.177z"/>
	<path style="fill:#00BAEF;" d="M615.317,146.598c0.363-4.904,4.54-7.265,9.081-6.901c5.085,7.809,4.54,17.98,3.269,26.879
		c-0.545,3.996-4.54,5.993-8.354,4.722C613.138,164.76,614.591,154.771,615.317,146.598z"/>
	<path style="fill:#00BAEF;" d="M564.465,156.224c1.09-4.177,5.63-3.269,8.899-3.087c2.543,9.807,2.906,20.704-0.182,30.33
		c-1.635,0-4.722,0.182-6.175,0.363C562.649,175.657,561.922,165.305,564.465,156.224z"/>
	<path style="fill:#00BAEF;" d="M-1.088,164.942c2.724-2.906,4.904-6.538,7.265-9.626c0.363,1.09,1.09,3.451,1.453,4.722
		c1.453,5.267-1.816,10.534-6.538,12.713c-5.267,1.271-9.444-1.635-13.258-4.722l2.543-1.271
		C-6.718,166.031-3.812,165.668-1.088,164.942z"/>
	<path style="fill:#00BAEF;" d="M490.729,173.841c1.635-4.359,6.538-3.087,9.989-2.543c2.179,8.536,2.361,17.435,1.09,25.971
		c-0.545,3.451-4.904,2.361-7.265,3.269C488.912,192.729,489.639,182.74,490.729,173.841z"/>
	<path style="fill:#00BAEF;" d="M444.235,181.469c3.451-3.451,6.72,2.179,7.265,5.267c0.908,7.809,2.724,16.89-1.998,23.973
		c-1.634,0.908-3.269,1.09-5.085,0.727c-4.359-4.722-4.359-11.442-4.54-17.435C440.239,189.46,440.239,184.011,444.235,181.469z"/>
	<path style="fill:#00BAEF;" d="M389.024,206.713c0-4.904-0.363-13.44,6.175-14.166c3.814-0.726,4.722,3.996,5.267,6.901
		c0.908,7.809,1.09,15.801-1.271,23.247C390.113,223.785,389.024,213.252,389.024,206.713z"/>
	<path style="fill:#00BAEF;" d="M341.622,203.989c2.179-0.727,4.722-0.363,7.083-0.363c2.543,8.899,3.996,19.07,0.182,27.787
		c-2.906-0.182-7.083,0.726-8.173-3.087C338.353,220.698,336.355,210.89,341.622,203.989z"/>
	<path style="fill:#00BAEF;" d="M742.085,220.153c42.317-5.085,84.088-15.619,126.95-14.893c14.348-0.182,27.061,9.626,32.872,22.52
		c-68.469,6.175-135.849,19.251-203.773,29.24c-146.564,23.973-292.947,48.128-439.329,72.828
		c-37.413,6.175-75.007,12.531-112.602,18.343c-7.991,1.634-15.801,2.906-23.61,4.722c-5.449,1.453-10.897-0.545-16.164-1.998
		c-9.989-2.724-19.615-6.357-29.24-9.989c0.727,0,2.361-0.182,3.269-0.182c-1.271-0.908-3.814-2.906-5.085-3.814
		c6.901-2.179,13.984-3.632,21.067-3.814c0-0.363-0.182-1.271-0.182-1.635v-0.363c25.245-3.451,50.126-9.626,75.371-13.984
		c85.36-15.619,171.082-29.785,256.805-44.314c88.992-15.619,177.984-30.148,266.976-45.404c2.724-0.545,5.448-1.09,8.173-1.816
		c2.906,4.54,5.993,9.626,11.442,11.442c7.083,0.727,14.348-1.09,20.704-4.177C740.269,230.505,741.177,224.875,742.085,220.153z"/>
	<path style="fill:#00BAEF;" d="M292.404,238.314c-2.179-7.446-4.359-17.798,2.724-23.247c3.269-1.998,5.267,1.816,5.812,4.359
		c1.271,7.809,1.271,15.801-0.726,23.428C296.763,242.673,293.13,242.128,292.404,238.314z"/>
	<path style="fill:#00BAEF;" d="M243.549,246.487c-1.453-7.265-2.543-18.343,6.357-21.431c1.816,1.998,4.54,3.814,4.177,6.901
		c0.182,7.083,0.545,14.348-1.816,21.068C247.908,253.934,244.276,250.846,243.549,246.487z"/>
	<path style="fill:#00BAEF;" d="M196.874,257.566c-1.453-7.265-2.543-16.345,3.996-21.431c2.361,1.816,5.085,3.632,5.449,6.901
		c1.09,6.72,2.179,14.711-1.998,20.704C200.143,265.557,197.782,260.835,196.874,257.566z"/>
	<path style="fill:#00BAEF;" d="M151.47,251.936c1.271-2.724,4.54-5.812,7.628-3.814c3.632,5.993,3.087,13.44,2.724,20.159
		c0,3.632-3.451,5.085-6.175,6.357c-0.182,0.545-0.363,1.816-0.363,2.361C151.107,269.371,148.746,260.472,151.47,251.936z"/>
</g>
<g>
	<path style="fill:#4E505E;" d="M720.291,83.941c2.543-1.09,5.267-1.634,7.81-2.179c5.267,2.179,10.715-1.271,16.345-0.182
		c-8.173,4.722-17.798,5.812-26.879,7.991C718.293,88.3,719.746,85.394,720.291,83.941z"/>
	<path style="fill:#4E505E;" d="M704.128,107.369c4.904,1.998,4.54-5.267,6.538-7.991c0.363,2.906-0.727,6.356,1.635,8.536
		c-1.271,3.814-2.361,7.628-3.269,11.442l-3.088,0.545c-2.361,7.446-2.543,15.437-3.087,23.247
		c-1.09-7.083,1.271-14.893-2.361-21.431C701.222,116.813,702.311,111.91,704.128,107.369z"/>
	<path style="fill:#4E505E;" d="M-19.249,117.177c2.179-5.63,9.081-4.54,13.803-3.814c5.448,3.269,11.805,6.72,14.711,12.713
		c-0.726,1.635,0.363,2.906,2.179,3.451c-1.635,1.271-3.269,2.543-4.904,3.996c-0.363,0.182-1.09,0.726-1.453,0.908
		c0.726-3.451,1.453-7.083,2.179-10.715c-0.726,0.727-1.998,2.361-2.724,3.088c-0.726-0.545-2.179-1.634-2.906-2.179
		c-3.451,2.179-7.083,3.996-10.715,5.63c-1.453,0.182-4.359,0.545-5.993,0.727c-2.361,3.269-1.271,7.265-1.271,11.079
		c-1.09-0.726-3.087-1.998-4.177-2.724c3.269-4.54,5.085-9.989,8.899-14.166c2.906-3.269,7.446-2.906,11.26-3.632
		C-2.359,112.818-13.256,112.636-19.249,117.177z"/>
	<path style="fill:#4E505E;" d="M-4.72,157.677c0.726,0,2.361,0,3.087,0c1.453,2.361,1.09,4.177-1.09,5.267
		C-5.265,162.036-5.81,160.22-4.72,157.677z"/>
</g>
<g>
	<path style="fill:#7D8693;" d="M-9.079,130.253c3.814-1.635,7.265-3.451,10.715-5.63c0.726,0.545,2.179,1.634,2.906,2.179
		c-1.635,1.816-3.451,3.632-5.085,5.448c-1.271-0.363-3.814-1.09-5.085-1.635h-1.271c-0.908,0-2.906,0.182-3.814,0.363
		L-9.079,130.253z"/>
</g>
<g>
	<path style="fill:#DDAA0E;" d="M-11.985,146.417c-4.177-4.722-3.269-11.442,1.453-15.437c0.908,0,2.906-0.182,3.814-0.363
		l2.361,0.727c0.726,3.088,1.453,6.175,1.998,9.262c2.361-2.361,4.54-4.722,7.446-6.356c0.363-0.182,1.09-0.727,1.453-0.908
		c2.179,3.995,1.453,8.899,1.998,13.258c-3.814,5.993-10.352,7.991-16.164,11.26c-0.363,0.182-1.271,0.545-1.635,0.726
		c-1.271-3.451-2.543-6.72-3.632-10.171c0.363,3.087,0.545,6.175,0.727,9.262c-2.724,1.09-5.267,1.998-7.991,3.087
		c-1.453-3.451-3.269-6.901-2.724-10.715C-20.339,146.78-15.799,147.143-11.985,146.417z"/>
</g>
<g>
	<path style="fill:#1A799D;" d="M-1.633,157.677c3.087-1.816,6.357-3.632,9.626-5.449c0,2.543-0.182,4.904-0.182,7.446
		c-0.363-1.09-1.09-3.451-1.453-4.722c-2.361,3.269-4.54,6.72-7.265,9.626c-2.724,0.726-5.63,1.09-8.354,1.816
		c0-2.724,0.182-5.267,0.182-7.991c0.363-0.182,1.09-0.545,1.635-0.726l2.906-0.363c-1.271,2.543-0.545,4.359,1.816,5.267
		C-0.543,161.854-0.18,160.038-1.633,157.677z"/>
	<path style="fill:#1A799D;" d="M1.273,172.57c-5.267,2.906-11.623,1.271-13.258-4.722C-8.171,170.935-3.994,174.022,1.273,172.57z"
		/>
	<path style="fill:#1A799D;" d="M67.382,336.206c9.444-2.179,19.07-3.451,28.695-4.904c0,0.363,0.182,1.271,0.182,1.634
		c-7.265,0.182-14.348,1.634-21.067,3.814c1.271,0.908,3.814,2.724,5.085,3.814c-0.727,0-2.361,0.182-3.269,0.182
		C73.375,341.109,69.743,339.293,67.382,336.206z"/>
</g>
<g>
	<path style="fill:#FE882A;" d="M1012.693,350.553c7.991-2.179,15.437-5.812,23.429-7.628c3.814-0.363,4.177,4.177,5.085,6.901
		c3.269,12.35-4.359,24.518-13.984,31.419c-2.543,2.18-5.63-0.182-6.901-2.543C1015.054,370.349,1012.693,360.361,1012.693,350.553z
		"/>
	<path style="fill:#FE882A;" d="M636.93,374.163c10.897-0.363,19.433,9.807,21.976,19.615c3.087,14.166-6.901,27.787-19.251,33.599
		c-2.724,1.453-4.359-1.816-5.812-3.632c-7.083-11.442-8.899-26.334-3.814-39.047C631.481,380.883,633.116,376.343,636.93,374.163z"
		/>
	<path style="fill:#FE882A;" d="M267.522,455.164c-1.816-11.805,1.453-23.792,7.628-33.962c11.26,0,20.341,9.626,23.973,19.615
		c3.996,15.437-7.446,30.33-20.523,37.413C271.155,472.962,268.794,463.7,267.522,455.164z"/>
</g>
</svg>
