<?xml version="1.0" encoding="utf-8"?>
<!-- Generator: Adobe Illustrator 27.5.0, SVG Export Plug-In . SVG Version: 6.00 Build 0)  -->
<svg version="1.1" xmlns="http://www.w3.org/2000/svg" xmlns:xlink="http://www.w3.org/1999/xlink" x="0px" y="0px"
	 viewBox="0 0 500 500" style="enable-background:new 0 0 500 500;" xml:space="preserve">
<g id="BACKGROUND">
</g>
<g id="OBJECTS">
	<g>
		<path style="fill:#D3D3D3;" d="M429.116,407.958H70.884c-3.279,0-5.938,2.658-5.938,5.938s2.658,5.938,5.938,5.938h358.231
			c3.279,0,5.938-2.658,5.938-5.938S432.395,407.958,429.116,407.958z"/>
		<path style="fill:#7EAD34;" d="M390.987,290.947l-3.618-15.939c-0.533-2.348-3.508-2.348-4.04,0l-3.618,15.939l-5.638,24.839
			h11.277h11.277L390.987,290.947z"/>
		<path style="fill:#71992B;" d="M385.372,273.249c-0.885-0.011-1.775,0.574-2.044,1.759l-3.618,15.939l-5.639,24.839h11.277h0.024
			V273.249z"/>
		<path style="fill:#7EAD34;" d="M366.642,296.13l-2.863-12.613c-0.422-1.858-2.775-1.858-3.197,0l-2.863,12.613l-4.462,19.656
			h8.924h8.924L366.642,296.13z"/>
		<path style="fill:#71992B;" d="M362.199,282.125c-0.7-0.008-1.404,0.455-1.617,1.392l-2.863,12.613l-4.462,19.656h8.924h0.019
			V282.125z"/>
		<path style="fill:#7EAD34;" d="M344.426,290.947l-3.618-15.939c-0.533-2.348-3.507-2.348-4.04,0l-3.618,15.939l-5.638,24.839
			h11.277h11.277L344.426,290.947z"/>
		<path style="fill:#71992B;" d="M338.811,273.249c-0.885-0.011-1.775,0.574-2.044,1.759l-3.618,15.939l-5.638,24.839h11.277h0.024
			V273.249z"/>
		<path style="fill:#7EAD34;" d="M320.081,296.13l-2.863-12.613c-0.422-1.858-2.776-1.858-3.197,0l-2.863,12.613l-4.462,19.656
			h8.924h8.924L320.081,296.13z"/>
		<path style="fill:#71992B;" d="M315.638,282.125c-0.7-0.008-1.405,0.455-1.617,1.392l-2.863,12.613l-4.462,19.656h8.924h0.019
			V282.125z"/>
		<path style="fill:#8DC63F;" d="M401.044,312.741H289.416v5.653h115.01v-2.27C404.427,314.256,402.912,312.741,401.044,312.741z"/>
		
			<rect x="77.324" y="107.852" transform="matrix(-1 -1.224647e-16 1.224647e-16 -1 186.6132 521.7478)" style="fill:#2480C4;" width="31.966" height="306.043"/>
		<rect x="159.268" y="107.852" style="fill:#2480C4;" width="136.812" height="260.915"/>
		<rect x="159.268" y="115.025" style="fill:#34ADD6;" width="3.594" height="250.156"/>
		<rect x="77.324" y="115.025" style="fill:#34ADD6;" width="3.594" height="298.871"/>
		<rect x="105.696" y="115.025" style="fill:#34ADD6;" width="3.594" height="298.871"/>
		<rect x="187.979" y="115.025" style="fill:#34ADD6;" width="3.594" height="250.156"/>
		<rect x="216.689" y="115.025" style="fill:#34ADD6;" width="3.594" height="250.156"/>
		<rect x="245.399" y="115.025" style="fill:#34ADD6;" width="3.594" height="250.156"/>
		<rect x="274.11" y="115.025" style="fill:#34ADD6;" width="3.594" height="250.156"/>
		<rect x="109.29" y="102.002" style="fill:#D8E1FF;" width="49.979" height="311.894"/>
		<rect x="159.268" y="107.852" style="fill:#C1CFF4;" width="139.915" height="7.173"/>
		<rect x="159.268" y="131.246" style="fill:#C1CFF4;" width="139.915" height="7.173"/>
		<rect x="159.268" y="154.639" style="fill:#C1CFF4;" width="139.915" height="7.173"/>
		<rect x="159.268" y="178.033" style="fill:#C1CFF4;" width="139.915" height="7.173"/>
		<rect x="159.268" y="201.426" style="fill:#C1CFF4;" width="139.915" height="7.173"/>
		<rect x="159.268" y="224.82" style="fill:#C1CFF4;" width="139.915" height="7.173"/>
		<rect x="159.268" y="248.213" style="fill:#C1CFF4;" width="139.915" height="7.173"/>
		<rect x="159.268" y="271.607" style="fill:#C1CFF4;" width="139.915" height="7.173"/>
		<rect x="159.268" y="295" style="fill:#C1CFF4;" width="139.915" height="7.173"/>
		<rect x="159.268" y="318.394" style="fill:#C1CFF4;" width="139.915" height="7.173"/>
		<rect x="159.268" y="341.788" style="fill:#C1CFF4;" width="139.915" height="7.173"/>
		<rect x="159.268" y="115.025" style="opacity:0.2;fill:#2B3990;" width="136.812" height="3.214"/>
		<rect x="159.268" y="138.418" style="opacity:0.2;fill:#2B3990;" width="136.812" height="3.214"/>
		<rect x="159.268" y="161.812" style="opacity:0.2;fill:#2B3990;" width="136.812" height="3.214"/>
		<rect x="159.268" y="185.206" style="opacity:0.2;fill:#2B3990;" width="136.812" height="3.214"/>
		<rect x="159.268" y="208.599" style="opacity:0.2;fill:#2B3990;" width="136.812" height="3.214"/>
		<rect x="159.268" y="231.993" style="opacity:0.2;fill:#2B3990;" width="136.812" height="3.214"/>
		<rect x="159.268" y="255.386" style="opacity:0.2;fill:#2B3990;" width="136.812" height="3.214"/>
		<rect x="159.268" y="278.78" style="opacity:0.2;fill:#2B3990;" width="136.812" height="3.214"/>
		<rect x="159.268" y="302.173" style="opacity:0.2;fill:#2B3990;" width="136.812" height="3.214"/>
		<rect x="159.268" y="325.567" style="opacity:0.2;fill:#2B3990;" width="136.812" height="3.214"/>
		<rect x="159.268" y="348.96" style="opacity:0.2;fill:#2B3990;" width="136.812" height="3.214"/>
		
			<rect x="74.22" y="107.852" transform="matrix(-1 -1.224647e-16 1.224647e-16 -1 183.5099 222.8771)" style="fill:#C1CFF4;" width="35.069" height="7.173"/>
		
			<rect x="74.22" y="131.246" transform="matrix(-1 -1.224647e-16 1.224647e-16 -1 183.5099 269.6641)" style="fill:#C1CFF4;" width="35.069" height="7.173"/>
		
			<rect x="74.22" y="154.639" transform="matrix(-1 -1.224647e-16 1.224647e-16 -1 183.5099 316.4513)" style="fill:#C1CFF4;" width="35.069" height="7.173"/>
		
			<rect x="74.22" y="178.033" transform="matrix(-1 -1.224647e-16 1.224647e-16 -1 183.5099 363.2383)" style="fill:#C1CFF4;" width="35.069" height="7.173"/>
		
			<rect x="74.22" y="201.426" transform="matrix(-1 -1.224647e-16 1.224647e-16 -1 183.5099 410.0253)" style="fill:#C1CFF4;" width="35.069" height="7.173"/>
		
			<rect x="74.22" y="224.82" transform="matrix(-1 -1.224647e-16 1.224647e-16 -1 183.5099 456.8125)" style="fill:#C1CFF4;" width="35.069" height="7.173"/>
		
			<rect x="74.22" y="248.213" transform="matrix(-1 -1.224647e-16 1.224647e-16 -1 183.5099 503.5995)" style="fill:#C1CFF4;" width="35.069" height="7.173"/>
		
			<rect x="74.22" y="271.607" transform="matrix(-1 -1.224647e-16 1.224647e-16 -1 183.5099 550.3865)" style="fill:#C1CFF4;" width="35.069" height="7.173"/>
		
			<rect x="74.22" y="295" transform="matrix(-1 -1.224647e-16 1.224647e-16 -1 183.5099 597.1735)" style="fill:#C1CFF4;" width="35.069" height="7.173"/>
		
			<rect x="74.22" y="318.394" transform="matrix(-1 -1.224647e-16 1.224647e-16 -1 183.5099 643.9607)" style="fill:#C1CFF4;" width="35.069" height="7.173"/>
		
			<rect x="74.22" y="341.788" transform="matrix(-1 -1.224647e-16 1.224647e-16 -1 183.5099 690.7477)" style="fill:#C1CFF4;" width="35.069" height="7.173"/>
		
			<rect x="77.324" y="115.025" transform="matrix(-1 -1.224647e-16 1.224647e-16 -1 186.6132 233.2634)" style="opacity:0.2;fill:#2B3990;" width="31.966" height="3.214"/>
		
			<rect x="77.324" y="138.418" transform="matrix(-1 -1.224647e-16 1.224647e-16 -1 186.6132 280.0504)" style="opacity:0.2;fill:#2B3990;" width="31.966" height="3.214"/>
		
			<rect x="77.324" y="161.812" transform="matrix(-1 -1.224647e-16 1.224647e-16 -1 186.6132 326.8375)" style="opacity:0.2;fill:#2B3990;" width="31.966" height="3.214"/>
		
			<rect x="77.324" y="185.206" transform="matrix(-1 -1.224647e-16 1.224647e-16 -1 186.6132 373.6246)" style="opacity:0.2;fill:#2B3990;" width="31.966" height="3.214"/>
		
			<rect x="77.324" y="208.599" transform="matrix(-1 -1.224647e-16 1.224647e-16 -1 186.6132 420.4116)" style="opacity:0.2;fill:#2B3990;" width="31.966" height="3.214"/>
		
			<rect x="77.324" y="231.993" transform="matrix(-1 -1.224647e-16 1.224647e-16 -1 186.6132 467.1987)" style="opacity:0.2;fill:#2B3990;" width="31.966" height="3.214"/>
		
			<rect x="77.324" y="255.386" transform="matrix(-1 -1.224647e-16 1.224647e-16 -1 186.6132 513.9857)" style="opacity:0.2;fill:#2B3990;" width="31.966" height="3.214"/>
		
			<rect x="77.324" y="278.78" transform="matrix(-1 -1.224647e-16 1.224647e-16 -1 186.6132 560.7728)" style="opacity:0.2;fill:#2B3990;" width="31.966" height="3.214"/>
		
			<rect x="77.324" y="302.173" transform="matrix(-1 -1.224647e-16 1.224647e-16 -1 186.6132 607.5598)" style="opacity:0.2;fill:#2B3990;" width="31.966" height="3.214"/>
		
			<rect x="77.324" y="325.567" transform="matrix(-1 -1.224647e-16 1.224647e-16 -1 186.6132 654.3469)" style="opacity:0.2;fill:#2B3990;" width="31.966" height="3.214"/>
		
			<rect x="77.324" y="348.96" transform="matrix(-1 -1.224647e-16 1.224647e-16 -1 186.6132 701.134)" style="opacity:0.2;fill:#2B3990;" width="31.966" height="3.214"/>
		<rect x="159.268" y="365.181" style="fill:#C1CFF4;" width="139.915" height="48.715"/>
		<text transform="matrix(1 0 0 1 179.0137 107.8525)"><tspan x="0" y="0" style="fill:#F7941E; font-family:'OpenSans-Extrabold'; font-size:24.3337px; letter-spacing:3;">H</tspan><tspan x="22.536" y="0" style="fill:#F7941E; font-family:'OpenSans-Extrabold'; font-size:24.3337px; letter-spacing:4;">OTEL</tspan></text>
		<rect x="223.593" y="360.537" style="fill:#D8E1FF;" width="200.592" height="53.359"/>
		<rect x="223.593" y="350.812" style="fill:#E9EFFF;" width="204.989" height="9.725"/>
		<g>
			<rect x="353.488" y="371.023" style="fill:#2480C4;" width="62.917" height="39.828"/>
			<rect x="353.488" y="371.023" style="fill:#24428B;" width="1.555" height="39.828"/>
			<rect x="362.254" y="371.023" style="fill:#24428B;" width="1.555" height="39.828"/>
			<rect x="371.02" y="371.023" style="fill:#24428B;" width="1.555" height="39.828"/>
			<rect x="379.786" y="371.023" style="fill:#24428B;" width="1.555" height="39.828"/>
			<rect x="388.552" y="371.023" style="fill:#24428B;" width="1.555" height="39.828"/>
			<rect x="397.318" y="371.023" style="fill:#24428B;" width="1.555" height="39.828"/>
			<rect x="406.084" y="371.023" style="fill:#24428B;" width="1.555" height="39.828"/>
			<rect x="414.85" y="371.023" style="fill:#24428B;" width="1.555" height="39.828"/>
			
				<rect x="384.169" y="341.897" transform="matrix(-1.836970e-16 1 -1 -1.836970e-16 756.7471 -13.1456)" style="fill:#24428B;" width="1.555" height="59.807"/>
			<rect x="355.043" y="372.578" style="fill:#34ADD6;" width="2.039" height="38.273"/>
			<rect x="363.809" y="372.578" style="fill:#34ADD6;" width="2.039" height="38.273"/>
			<rect x="372.575" y="372.578" style="fill:#34ADD6;" width="2.039" height="38.273"/>
			<rect x="381.341" y="372.578" style="fill:#34ADD6;" width="2.039" height="38.273"/>
			<rect x="390.107" y="372.578" style="fill:#34ADD6;" width="2.039" height="38.273"/>
			<rect x="398.873" y="372.578" style="fill:#34ADD6;" width="2.039" height="38.273"/>
			<rect x="407.639" y="372.578" style="fill:#34ADD6;" width="2.039" height="38.273"/>
		</g>
		<g>
			<rect x="284.481" y="371.023" style="fill:#2480C4;" width="62.917" height="39.828"/>
			<rect x="284.481" y="371.023" style="fill:#24428B;" width="1.555" height="39.828"/>
			<rect x="293.247" y="371.023" style="fill:#24428B;" width="1.555" height="39.828"/>
			<rect x="302.013" y="371.023" style="fill:#24428B;" width="1.555" height="39.828"/>
			<rect x="310.78" y="371.023" style="fill:#24428B;" width="1.555" height="39.828"/>
			<rect x="319.546" y="371.023" style="fill:#24428B;" width="1.555" height="39.828"/>
			<rect x="328.312" y="371.023" style="fill:#24428B;" width="1.555" height="39.828"/>
			<rect x="337.078" y="371.023" style="fill:#24428B;" width="1.555" height="39.828"/>
			<rect x="345.844" y="371.023" style="fill:#24428B;" width="1.555" height="39.828"/>
			
				<rect x="315.163" y="341.897" transform="matrix(-1.836970e-16 1 -1 -1.836970e-16 687.7409 55.8606)" style="fill:#24428B;" width="1.555" height="59.807"/>
			<rect x="286.037" y="372.578" style="fill:#34ADD6;" width="2.039" height="38.273"/>
			<rect x="294.803" y="372.578" style="fill:#34ADD6;" width="2.039" height="38.273"/>
			<rect x="303.569" y="372.578" style="fill:#34ADD6;" width="2.039" height="38.273"/>
			<rect x="312.335" y="372.578" style="fill:#34ADD6;" width="2.039" height="38.273"/>
			<rect x="321.101" y="372.578" style="fill:#34ADD6;" width="2.039" height="38.273"/>
			<rect x="329.867" y="372.578" style="fill:#34ADD6;" width="2.039" height="38.273"/>
			<rect x="338.633" y="372.578" style="fill:#34ADD6;" width="2.039" height="38.273"/>
		</g>
		<rect x="231.543" y="371.023" style="fill:#2480C4;" width="46.511" height="42.873"/>
		<rect x="276.499" y="371.023" style="fill:#24428B;" width="1.555" height="42.873"/>
		<rect x="231.543" y="371.023" style="fill:#24428B;" width="1.555" height="42.873"/>
		<rect x="238.456" y="371.023" style="fill:#24428B;" width="1.555" height="42.873"/>
		<rect x="254.021" y="371.023" style="fill:#24428B;" width="1.555" height="42.873"/>
		<rect x="269.586" y="371.023" style="fill:#24428B;" width="1.555" height="42.873"/>
		
			<rect x="254.021" y="350.1" transform="matrix(-1.836970e-16 1 -1 -1.836970e-16 626.5994 117.0022)" style="fill:#24428B;" width="1.555" height="43.401"/>
		<rect x="233.098" y="372.578" style="fill:#34ADD6;" width="2.039" height="41.317"/>
		<rect x="271.141" y="372.578" style="fill:#34ADD6;" width="2.039" height="41.317"/>
		
			<rect x="254.021" y="357.204" transform="matrix(-1.836970e-16 1 -1 -1.836970e-16 633.7029 124.1058)" style="fill:#24428B;" width="1.555" height="43.401"/>
		<rect x="231.543" y="369.078" style="fill:#B5C3EA;" width="46.511" height="1.945"/>
		<rect x="284.481" y="369.078" style="fill:#B5C3EA;" width="62.917" height="1.945"/>
		<rect x="353.488" y="369.078" style="fill:#B5C3EA;" width="62.917" height="1.945"/>
		<rect x="223.593" y="360.537" style="opacity:0.2;fill:#2B3990;" width="200.592" height="4.644"/>
		<rect x="359.576" y="336.853" style="fill:#D8E1FF;" width="14.018" height="13.959"/>
		<rect x="223.593" y="336.853" style="fill:#D8E1FF;" width="14.018" height="13.959"/>
		<rect x="237.611" y="336.853" style="fill:#2480C4;" width="121.965" height="13.959"/>
		<rect x="373.594" y="336.853" style="fill:#2480C4;" width="28.857" height="13.959"/>
		<rect x="237.611" y="336.853" style="fill:#34ADD6;" width="2.039" height="13.959"/>
		<rect x="259.683" y="336.853" style="fill:#34ADD6;" width="2.039" height="13.959"/>
		<rect x="281.755" y="336.853" style="fill:#34ADD6;" width="2.039" height="13.959"/>
		<rect x="303.827" y="336.853" style="fill:#34ADD6;" width="2.039" height="13.959"/>
		<rect x="325.899" y="336.853" style="fill:#34ADD6;" width="2.039" height="13.959"/>
		<rect x="373.594" y="336.853" style="fill:#34ADD6;" width="2.039" height="13.959"/>
		<rect x="347.971" y="336.853" style="fill:#34ADD6;" width="2.039" height="13.959"/>
		<rect x="223.593" y="318.394" style="fill:#E9EFFF;" width="183.268" height="18.459"/>
		<rect x="223.593" y="336.853" style="opacity:0.2;fill:#2B3990;" width="178.858" height="5.074"/>
		<rect x="109.29" y="102.002" style="fill:#E9EFFF;" width="6.089" height="311.894"/>
		<g>
			<rect x="74.22" y="107.852" style="fill:#E9EFFF;" width="15.661" height="7.173"/>
			<rect x="74.22" y="131.246" style="fill:#E9EFFF;" width="15.661" height="7.173"/>
			<rect x="74.22" y="154.639" style="fill:#E9EFFF;" width="15.661" height="7.173"/>
			<rect x="74.22" y="178.033" style="fill:#E9EFFF;" width="15.661" height="7.173"/>
			<rect x="74.22" y="201.426" style="fill:#E9EFFF;" width="15.661" height="7.173"/>
			<rect x="74.22" y="224.82" style="fill:#E9EFFF;" width="15.661" height="7.173"/>
			<rect x="74.22" y="248.213" style="fill:#E9EFFF;" width="15.661" height="7.173"/>
			<rect x="74.22" y="271.607" style="fill:#E9EFFF;" width="15.661" height="7.173"/>
			<rect x="74.22" y="295" style="fill:#E9EFFF;" width="15.661" height="7.173"/>
			<rect x="74.22" y="318.394" style="fill:#E9EFFF;" width="15.661" height="7.173"/>
			<rect x="74.22" y="341.788" style="fill:#E9EFFF;" width="15.661" height="7.173"/>
		</g>
		<g>
			<rect x="191.573" y="107.852" style="fill:#E9EFFF;" width="15.661" height="7.173"/>
			<rect x="191.573" y="131.246" style="fill:#E9EFFF;" width="15.661" height="7.173"/>
			<rect x="191.573" y="154.639" style="fill:#E9EFFF;" width="15.661" height="7.173"/>
			<rect x="191.573" y="178.033" style="fill:#E9EFFF;" width="15.661" height="7.173"/>
			<rect x="191.573" y="201.426" style="fill:#E9EFFF;" width="15.661" height="7.173"/>
			<rect x="191.573" y="224.82" style="fill:#E9EFFF;" width="15.661" height="7.173"/>
			<rect x="191.573" y="248.213" style="fill:#E9EFFF;" width="15.661" height="7.173"/>
			<rect x="191.573" y="271.607" style="fill:#E9EFFF;" width="15.661" height="7.173"/>
			<rect x="191.573" y="295" style="fill:#E9EFFF;" width="15.661" height="7.173"/>
			<rect x="191.573" y="318.394" style="fill:#E9EFFF;" width="15.661" height="7.173"/>
			<rect x="191.573" y="341.788" style="fill:#E9EFFF;" width="15.661" height="7.173"/>
		</g>
		<g>
			<rect x="277.704" y="107.852" style="fill:#E9EFFF;" width="15.661" height="7.173"/>
			<rect x="277.704" y="131.246" style="fill:#E9EFFF;" width="15.661" height="7.173"/>
			<rect x="277.704" y="154.639" style="fill:#E9EFFF;" width="15.661" height="7.173"/>
			<rect x="277.704" y="178.033" style="fill:#E9EFFF;" width="15.661" height="7.173"/>
			<rect x="277.704" y="201.426" style="fill:#E9EFFF;" width="15.661" height="7.173"/>
			<rect x="277.704" y="224.82" style="fill:#E9EFFF;" width="15.661" height="7.173"/>
			<rect x="277.704" y="248.213" style="fill:#E9EFFF;" width="15.661" height="7.173"/>
			<rect x="277.704" y="271.607" style="fill:#E9EFFF;" width="15.661" height="7.173"/>
			<rect x="277.704" y="295" style="fill:#E9EFFF;" width="15.661" height="7.173"/>
		</g>
		<rect x="153.18" y="102.002" style="fill:#E9EFFF;" width="6.089" height="311.894"/>
		<rect x="130.6" y="107.852" style="opacity:0.2;fill:#2B3990;" width="7.357" height="306.043"/>
		<rect x="296.08" y="316.801" style="fill:#7EAD34;" width="108.346" height="1.593"/>
		<polygon style="opacity:0.2;fill:#2B3990;" points="216.689,365.181 216.689,395.278 159.268,395.278 159.268,413.896 
			223.593,413.896 223.593,397.308 223.593,395.278 223.593,365.181 		"/>
	</g>
</g>
<g id="DESIGNED_BY_FREEPIK">
	<g id="XMLID_34_">
		<g id="XMLID_2145_">
			<g id="XMLID_2174_">
				<g id="XMLID_2193_">
					<path id="XMLID_2201_" style="fill:#1E1B1C;" d="M259.557,469.251c-0.408,0.418-0.759,0.881-1.047,1.373l-0.44-0.227
						c-0.065-0.281-0.331-0.477-0.625-0.441c-0.313,0.037-0.536,0.32-0.501,0.633c0.037,0.315,0.322,0.537,0.634,0.5
						c0.064-0.006,0.12-0.023,0.174-0.049l0.427,0.223c-0.236,0.523-0.408,1.076-0.51,1.648l0.708,0.125
						c0.216-1.236,0.804-2.371,1.693-3.285L259.557,469.251z"/>
					<path id="XMLID_2200_" style="fill:#1E1B1C;" d="M264.749,467.074c-0.163,0-0.323,0.006-0.482,0.016l-0.07-0.592
						c0.178-0.143,0.281-0.369,0.251-0.611c-0.042-0.371-0.38-0.637-0.752-0.594c-0.371,0.045-0.637,0.381-0.593,0.754
						c0.027,0.24,0.18,0.436,0.383,0.533l0.068,0.59c-0.675,0.109-1.327,0.314-1.947,0.611l0.309,0.647
						c0.885-0.422,1.836-0.637,2.834-0.637c0.469,0,0.939,0.049,1.395,0.148l0.151-0.701
						C265.789,467.129,265.27,467.074,264.749,467.074z"/>
					<path id="XMLID_2199_" style="fill:#1E1B1C;" d="M270.993,469.482c0.314-0.037,0.536-0.322,0.497-0.635
						c-0.037-0.313-0.321-0.535-0.636-0.498c-0.291,0.037-0.506,0.287-0.5,0.576l-0.394,0.344c-0.396-0.406-0.843-0.77-1.332-1.078
						l-0.383,0.607c1.073,0.676,1.912,1.633,2.426,2.766l0.652-0.295c-0.236-0.523-0.536-1.014-0.891-1.461l0.381-0.332
						C270.871,469.488,270.933,469.492,270.993,469.482z"/>
					<path id="XMLID_2198_" style="fill:#1E1B1C;" d="M264.231,476.73c-0.366,0.021-0.733,0.033-1.096,0.033
						c-0.831,0-1.639-0.059-2.345-0.17c-0.369-0.059-0.8-0.146-1.2-0.277c0.99,1.762,2.902,2.957,5.097,2.957
						c2.701,0,4.978-1.813,5.628-4.26c-0.645,0.426-1.425,0.781-2.326,1.061C266.873,476.423,265.573,476.65,264.231,476.73z"/>
					<path id="XMLID_2194_" style="fill:#1E1B1C;" d="M264.749,468.507c-3.171,0-5.752,2.523-5.752,5.623
						c0,0.402,0.045,0.803,0.13,1.191c0.637,0.459,2.56,0.844,5.058,0.693c2.725-0.166,5.011-0.906,6.311-2.043
						c-0.003-0.184-0.018-0.369-0.042-0.549C270.096,470.621,267.642,468.507,264.749,468.507z M262.705,474.669
						c-0.964,0-1.749-0.785-1.749-1.748c0-0.967,0.785-1.752,1.749-1.752c0.965,0,1.75,0.785,1.75,1.752
						C264.455,473.884,263.67,474.669,262.705,474.669z M267.188,473.812c-0.709,0-1.288-0.578-1.288-1.287
						c0-0.709,0.579-1.287,1.288-1.287c0.71,0,1.286,0.578,1.286,1.287C268.474,473.234,267.897,473.812,267.188,473.812z"/>
				</g>
				<path id="XMLID_2191_" style="fill:#1E1B1C;" d="M279.888,470.275c-0.279-0.111-0.763-0.293-1.308-0.227
					c-0.521,0.066-0.799,0.322-0.799,0.953v0.818h2.108v1.625h-2.108v5.16h-1.827v-5.16h-1.268v-1.625h1.268v-0.84
					c0-1.59,0.847-2.633,2.43-2.633c0.607,0,1.094,0.115,1.504,0.291V470.275z"/>
				<path id="XMLID_2189_" style="fill:#1E1B1C;" d="M284.335,473.425c-0.167-0.027-0.338-0.043-0.497-0.043
					c-0.847,0-1.429,0.518-1.429,1.525v3.697h-1.827v-6.785h1.772v0.742c0.427-0.637,1.077-0.924,1.91-0.924
					c0.392,0,0.802,0.121,1.036,0.318L284.335,473.425z"/>
				<path id="XMLID_2186_" style="fill:#1E1B1C;" d="M291.588,475.203c0,0.209-0.015,0.461-0.035,0.615h-4.809
					c0.195,0.98,0.881,1.408,1.742,1.408c0.589,0,1.225-0.238,1.716-0.652l1.072,1.176c-0.77,0.709-1.752,1.031-2.892,1.031
					c-2.08,0-3.523-1.416-3.523-3.551c0-2.135,1.4-3.592,3.431-3.592C290.243,471.638,291.581,473.087,291.588,475.203z
					 M286.751,474.572h3.003c-0.168-0.867-0.693-1.357-1.477-1.357C287.416,473.214,286.912,473.732,286.751,474.572z"/>
				<path id="XMLID_2183_" style="fill:#1E1B1C;" d="M298.829,475.203c0,0.209-0.015,0.461-0.035,0.615h-4.811
					c0.196,0.98,0.884,1.408,1.744,1.408c0.588,0,1.225-0.238,1.715-0.652l1.071,1.176c-0.771,0.709-1.749,1.031-2.892,1.031
					c-2.08,0-3.522-1.416-3.522-3.551c0-2.135,1.4-3.592,3.432-3.592C297.483,471.638,298.821,473.087,298.829,475.203z
					 M293.99,474.572h3.004c-0.168-0.867-0.694-1.357-1.477-1.357C294.655,473.214,294.15,473.732,293.99,474.572z"/>
				<path id="XMLID_2180_" style="fill:#1E1B1C;" d="M306.724,475.208c0,2.039-1.415,3.572-3.285,3.572
					c-0.909,0-1.554-0.357-1.995-0.883v3.508h-1.82v-9.586h1.785v0.75c0.441-0.553,1.092-0.932,2.022-0.932
					C305.309,471.638,306.724,473.171,306.724,475.208z M301.352,475.208c0,1.072,0.708,1.871,1.744,1.871
					c1.077,0,1.75-0.834,1.75-1.871c0-1.035-0.673-1.869-1.75-1.869C302.06,473.339,301.352,474.138,301.352,475.208z"/>
				<path id="XMLID_2177_" style="fill:#1E1B1C;" d="M309.659,469.601c0,0.658-0.512,1.162-1.169,1.162
					c-0.66,0-1.163-0.504-1.163-1.162s0.503-1.176,1.163-1.176C309.147,468.425,309.659,468.943,309.659,469.601z M309.413,478.605
					h-1.827v-6.785h1.827V478.605z"/>
				<path id="XMLID_2175_" style="fill:#1E1B1C;" d="M312.462,474.236l2.557-2.416h2.239l-3.29,3.193l3.313,3.592h-2.248
					l-2.57-2.744v2.744h-1.827v-10.082h1.827V474.236z"/>
			</g>
			<g id="XMLID_2146_">
				<path id="XMLID_2171_" style="fill:#1E1B1C;" d="M187.957,478.544v-0.998c-0.499,0.68-1.315,1.164-2.258,1.164
					c-1.746,0-2.979-1.33-2.979-3.506c0-2.135,1.22-3.52,2.979-3.52c0.9,0,1.718,0.443,2.258,1.178v-3.56h1.04v9.242H187.957z
					 M187.957,476.728v-3.033c-0.374-0.582-1.178-1.082-2.009-1.082c-1.344,0-2.147,1.109-2.147,2.592
					c0,1.483,0.804,2.576,2.147,2.576C186.779,477.781,187.583,477.31,187.957,476.728z"/>
				<path id="XMLID_2168_" style="fill:#1E1B1C;" d="M190.341,475.191c0-1.94,1.386-3.506,3.298-3.506
					c2.022,0,3.214,1.58,3.214,3.588v0.264h-5.417c0.083,1.262,0.97,2.314,2.41,2.314c0.763,0,1.538-0.305,2.065-0.846l0.499,0.68
					c-0.665,0.664-1.565,1.025-2.66,1.025C191.768,478.711,190.341,477.283,190.341,475.191z M193.624,472.544
					c-1.427,0-2.134,1.205-2.188,2.23h4.393C195.813,473.777,195.148,472.544,193.624,472.544z"/>
				<path id="XMLID_2166_" style="fill:#1E1B1C;" d="M197.601,477.658l0.541-0.748c0.443,0.512,1.288,0.955,2.202,0.955
					c1.026,0,1.58-0.484,1.58-1.15c0-1.621-4.143-0.623-4.143-3.103c0-1.039,0.9-1.926,2.493-1.926c1.137,0,1.94,0.43,2.481,0.969
					l-0.485,0.721c-0.401-0.484-1.136-0.844-1.996-0.844c-0.914,0-1.481,0.457-1.481,1.053c0,1.469,4.143,0.498,4.143,3.104
					c0,1.123-0.9,2.023-2.633,2.023C199.208,478.711,198.28,478.379,197.601,477.658z"/>
				<path id="XMLID_2163_" style="fill:#1E1B1C;" d="M204.1,470.203c0-0.389,0.318-0.707,0.692-0.707
					c0.388,0,0.707,0.318,0.707,0.707c0,0.387-0.319,0.691-0.707,0.691C204.418,470.894,204.1,470.589,204.1,470.203z
					 M204.279,478.544v-6.693h1.04v6.693H204.279z"/>
				<path id="XMLID_2160_" style="fill:#1E1B1C;" d="M207.037,480.261l0.525-0.775c0.555,0.666,1.22,0.914,2.176,0.914
					c1.108,0,2.147-0.539,2.147-2.008v-0.957c-0.484,0.68-1.302,1.191-2.244,1.191c-1.746,0-2.98-1.303-2.98-3.463
					c0-2.148,1.22-3.479,2.98-3.479c0.9,0,1.704,0.443,2.244,1.178v-1.012h1.04v6.498c0,2.217-1.553,2.91-3.188,2.91
					C208.602,481.259,207.826,481.037,207.037,480.261z M211.886,476.619v-2.924c-0.359-0.582-1.163-1.082-1.995-1.082
					c-1.344,0-2.147,1.066-2.147,2.551c0,1.469,0.804,2.549,2.147,2.549C210.723,477.712,211.526,477.201,211.886,476.619z"/>
				<path id="XMLID_2158_" style="fill:#1E1B1C;" d="M219.175,478.544v-4.379c0-1.178-0.597-1.553-1.497-1.553
					c-0.817,0-1.594,0.5-1.981,1.039v4.893h-1.039v-6.693h1.039v0.971c0.471-0.555,1.386-1.137,2.384-1.137
					c1.399,0,2.134,0.707,2.134,2.162v4.697H219.175z"/>
				<path id="XMLID_2155_" style="fill:#1E1B1C;" d="M221.558,475.191c0-1.94,1.386-3.506,3.298-3.506
					c2.022,0,3.215,1.58,3.215,3.588v0.264h-5.418c0.083,1.262,0.97,2.314,2.41,2.314c0.763,0,1.538-0.305,2.065-0.846l0.498,0.68
					c-0.665,0.664-1.566,1.025-2.66,1.025C222.985,478.711,221.558,477.283,221.558,475.191z M224.841,472.544
					c-1.427,0-2.134,1.205-2.188,2.23h4.393C227.03,473.777,226.365,472.544,224.841,472.544z"/>
				<path id="XMLID_2152_" style="fill:#1E1B1C;" d="M234.25,478.544v-0.998c-0.499,0.68-1.316,1.164-2.259,1.164
					c-1.746,0-2.98-1.33-2.98-3.506c0-2.135,1.22-3.52,2.98-3.52c0.9,0,1.719,0.443,2.259,1.178v-3.56h1.039v9.242H234.25z
					 M234.25,476.728v-3.033c-0.375-0.582-1.178-1.082-2.009-1.082c-1.345,0-2.148,1.109-2.148,2.592
					c0,1.483,0.804,2.576,2.148,2.576C233.072,477.781,233.875,477.31,234.25,476.728z"/>
				<path id="XMLID_2149_" style="fill:#1E1B1C;" d="M240.249,478.544v-9.242h1.039v3.56c0.541-0.734,1.345-1.178,2.259-1.178
					c1.745,0,2.98,1.385,2.98,3.52c0,2.176-1.234,3.506-2.98,3.506c-0.942,0-1.76-0.484-2.259-1.164v0.998H240.249z
					 M243.283,477.781c1.358,0,2.162-1.094,2.162-2.576c0-1.482-0.804-2.592-2.162-2.592c-0.817,0-1.635,0.5-1.995,1.082v3.033
					C241.648,477.31,242.466,477.781,243.283,477.781z"/>
				<path id="XMLID_2147_" style="fill:#1E1B1C;" d="M247.662,480.22c0.152,0.07,0.402,0.111,0.567,0.111
					c0.458,0,0.763-0.152,0.998-0.707l0.443-1.012l-2.799-6.762h1.122l2.232,5.486l2.217-5.486h1.136l-3.352,8.051
					c-0.402,0.969-1.081,1.344-1.968,1.357c-0.222,0-0.568-0.041-0.763-0.098L247.662,480.22z"/>
			</g>
		</g>
	</g>
</g>
</svg>
