<svg clip-rule="evenodd" fill-rule="evenodd" height="6.827in" image-rendering="optimizeQuality" shape-rendering="geometricPrecision" text-rendering="geometricPrecision" viewBox="0 0 6.82666 6.82666" width="6.827in" xmlns="http://www.w3.org/2000/svg"><g id="Layer_x0020_1"><g id="_398966608"><path id="_398970496" d="m1.25706 1.78925h4.31254c.222059 0 .403732.181669.403732.403728v2.44071c0 .222059-.181673.403728-.403732.403728h-4.31254c-.222051 0-.403724-.181669-.403724-.403728v-2.44071c0-.222059.181673-.403728.403724-.403728z" fill="#011d38"/><path id="_398969920" d="m1.25706 1.86924c-.177898 0-.323728.145835-.323728.323732v2.44071c0 .177898.145831.323732.323728.323732h4.31254c.177902 0 .323736-.145827.323736-.323732v-2.44071c0-.177906-.145835-.323732-.323736-.323732z" fill="#013668"/><circle id="_398970424" cx="4.219" cy="3.413" fill="#fac23c" r="1.198"/><path id="_398969608" d="m3.41337 2.5259c.0221969.0201614.043626.0411496.0642598.0629016h-.128606c.0206339-.021752.042063-.0427402.0642598-.0629016h.00008661z" fill="#fac23c"/><circle id="_398969560" cx="2.608" cy="3.413" fill="#dd2c00" r="1.198"/><g fill="#fac23c"><path id="_398969320" d="m3.53805 2.65756c.0166142.0204213.0325748.0413976.0478386.0629016h-.34511c.0152638-.0215039.0312244-.0424803.0478386-.0629016h.249433z"/><path id="_398969536" d="m3.6312 2.78921c.0125748.0205709.0245512.0415394.0358937.0629016h-.507528c.0113425-.0213622.0233189-.0423307.0358937-.0629016h.43574z"/><path id="_398968384" d="m3.70082 2.92086c.00932283.0206614.0180669.0416378.0262323.0629016h-.627449c.00816535-.0212638.0169094-.0422402.0262323-.0629016h.574984z"/><path id="_398968864" d="m3.75109 3.05252c.00653543.0207283.0125157.0417047.017937.0629016h-.711386c.00542126-.0211969.0114016-.0421732.017937-.0629016z"/><path id="_398968504" d="m3.78446 3.18417c.00402362.0207835.00751181.041752.0104488.0629016h-.76315c.00293701-.0211496.0064252-.0421181.0104488-.0629016h.742252z"/><path id="_398968168" d="m3.80246 3.31582c.00167717.0208228.00281102.0417953.00340945.0629016h-.785071c.00059843-.0211063.00173228-.0420787.00340945-.0629016h.778252z"/><path id="_398967808" d="m3.80588 3.44748c-.00059449.0211063-.00172441.0420827-.0033937.0629016h-.778315c-.00166929-.0208189-.00279921-.0417953-.0033937-.0629016h.785102z"/><path id="_398968240" d="m3.79497 3.57913c-.00292913.0211457-.00640945.0421181-.0104252.0629016h-.742433c-.00401575-.0207835-.00749606-.0417559-.0104252-.0629016h.763283z"/><path id="_398967640" d="m3.76914 3.71078c-.00541339.0211969-.0113819.0421732-.0179094.0629016h-.675795c-.00652756-.0207283-.0124961-.0417047-.0179094-.0629016h.711614z"/><path id="_398966992" d="m3.72723 3.84244c-.00815748.0212638-.0168858.0422402-.0262008.0629016h-.575394c-.00931496-.0206614-.0180433-.0416378-.0262008-.0629016h.627795z"/><path id="_398967472" d="m3.66734 3.97409c-.0113307.0213583-.0232992.0423307-.0358583.0629016h-.436299c-.0125591-.0205709-.0245276-.0415433-.0358583-.0629016h.508016z"/><path id="_398967112" d="m3.58621 4.10574c-.015248.0215-.031185.0424803-.0477835.0629016h-.250189c-.0165984-.0204213-.0325354-.0414016-.0477835-.0629016z"/></g><path id="_398966896" d="m5.18241 3.61681v-.406957h-.114244v.140583c-.0110827-.0118465-.0237795-.0206535-.0381772-.026626-.0142992-.00587008-.0302165-.00880315-.0478307-.00880315-.0360984 0-.0657441.0129764-.0891417.0389331-.0234055.0259567-.0351496.0633701-.0351496.112343 0 .0436732.0106102.0808976.0317362.1115.0212205.0305984.0519134.0458504.0919803.0458504.0199882 0 .0381772-.00426772.054378-.0127913.0122205-.00653543.0257638-.0191339.0405433-.0377047v.0436732h.105906zm-.128075-.200543c.00975984.0113701.014685.0287047.014685.0519134 0 .0256732-.00483071.0441457-.0143976.0555118-.00966142.0112717-.0216024.0169567-.0359961.0169567-.0134528 0-.0248228-.00559055-.0339173-.0168622-.00918898-.0112756-.0137323-.0288937-.0137323-.0530472 0-.0258622.00444882-.0442441.0132598-.0551339.00890551-.0109882.0198937-.0164843.0329685-.0164843.0149685 0 .027374.0056811.0371299.0171457z" fill="#fffffe"/><path id="_398966776" d="m4.71264 3.36994v-.048122h-.105906v.294984h.113673v-.0990866c0-.0472717.00587402-.0795748.0175236-.096811.00814961-.0122244.0197047-.0183819.0344843-.0183819.00776378 0 .018378.00274803.0317323.00833465l.0350512-.0802283c-.0197992-.0104213-.0380827-.0156299-.0548543-.0156299-.0159094 0-.0292677.00387795-.0401575.0117441-.0107992.00785827-.0213189.0222559-.0315472.0431969z" fill="#fffffe"/><path id="_398967256" d="m4.53796 3.42365c0-.0139252-.00274409-.0285118-.00833465-.0437598-.00549606-.0152598-.0130709-.0270945-.0227402-.0354331-.0136378-.0120315-.0307835-.0199843-.051248-.0237756-.0205551-.00379134-.0476457-.0056811-.0814606-.0056811-.0211299 0-.0407402.0016063-.0588307.00473228-.0180945.00312598-.0323031.0075748-.0426299.0133583-.0144921.00795669-.0254843.0173386-.0331575.0282283-.00766929.0107992-.0135433.0256693-.0176181.0446181l.107992.0113661c.00445669-.0128858.0102323-.0215984.0174331-.0263346.00928346-.00596457.0231102-.00890157.0415866-.00890157.0143976 0 .024437.00274409.030122.00833465.00577953.00558661.00862205.015248.00862205.0291772-.0140236.00558661-.027378.0100394-.0399764.0134488-.0125984.00350787-.0400748.00947244-.0824173.018-.0353307.00700787-.0595827.017811-.072752.0323031-.0131654.0144921-.0197008.0329646-.0197008.0554173 0 .0238701.00909055.0440512.027374.0603386.018189.0163937.0449055.0245394.0800472.0245394.0264291 0 .0496417-.00407087.0696299-.0122205.0146811-.00606299.0293661-.0162008.0441417-.0304094.00132283.00843307.00264961.0145906.00388583.0185669.00132283.00398031.00406693.00966535.00833465.0172402h.105815c-.00587795-.0122205-.00976378-.0222598-.0114646-.030122-.00179921-.0078622-.00265354-.0187598-.00265354-.0326811v-.13035zm-.158957.0676378c.0169567-.00435827.0331535-.00928346.0486929-.0148701v.018185c0 .0142126-.00227559.0257677-.00682677.0346693-.00454331.00890945-.0122165.0163898-.0230157.0225472-.0108937.00615748-.0226378.0092874-.0352362.0092874-.0120354 0-.0211299-.00284646-.027378-.00852756-.00615748-.00568504-.00928346-.0130709-.00928346-.0220709 0-.0078622.00312598-.014878.00947244-.0210354.00605906-.00596457.0206496-.0120276.0435748-.018185z" fill="#fffffe"/><path id="_398966464" d="m4.16918 3.32969c-.0142087-.0430079-.0360945-.0748386-.0653622-.0955866-.0293661-.0207402-.0697244-.0310669-.120972-.0310669-.0655512 0-.116232.0180906-.152134.0541811-.0358071.036189-.0537126.0879094-.0537126.155169 0 .0503937.0102283.0918858.0305945.124189.0203661.0323031.0445236.0549449.072563.0678307.0281378.0127835.0642244.0192283.108563.0192283.0364724 0 .0664961-.00530709.0900866-.0158228.0236811-.0105157.0433858-.0261457.0593031-.0468898.0160079-.0206496.0276575-.0465118.0350472-.0773937l-.110264-.033252c-.00559055.0256732-.0144921.0452835-.026811.0587323-.012315.0135472-.0305.0202717-.054563.0202717-.0248189 0-.0440512-.00833465-.0577835-.0250079-.0137362-.0167677-.0205591-.0475551-.0205591-.0926457 0-.0362835.00577953-.0629961.0172441-.0799488.0151535-.0228268.0370354-.0342913.0656457-.0342913.0125984 0 .0239646.00255512.0342008.00776378.0101339.00511811.018752.0125079.0258583.0220709.00426378.00568898.00833858.014685.0122205.027l.110835-.0245315z" fill="#fffffe"/><path id="_398966176" d="m3.73067 3.41086.0350512-.0802283c-.0197953-.0104213-.0380827-.0156299-.0548465-.0156299-.0159173 0-.0292756.00387795-.0401654.0117441-.0107992.00785827-.021311.0222559-.0315433.0431969v-.048122h-.105909v.294984h.113673v-.0990866c0-.0472717.00587402-.0795748.0175236-.096811.00814961-.0122244.0197087-.0183819.0344843-.0183819.00776772 0 .018378.00274803.0317323.00833465z" fill="#fffffe"/><path id="_398966128" d="m3.4804 3.48466c0-.0389331-.00634646-.0705748-.0191339-.0948228-.0127874-.0243504-.0314488-.0428189-.0558858-.0556102-.0244449-.0127835-.0576929-.0192244-.0999409-.0192244-.0520079 0-.0928346.0142992-.122299.042815-.0295551.0285157-.0443307.0659331-.0443307.112067 0 .0323976.00738976.060626.0220709.084685.0147756.0239646.0333465.0414882.0556969.0524843.0224528.0110787.0531457.0165748.0922717.0165748.0449961 0 .0795669-.00644488.10363-.0193268.024063-.0127874.0446181-.0341024.0616732-.0636575l-.111406-.0102323c-.00700787.00881102-.0136378.0149685-.0197992.0184724-.00994488.00549606-.0205551.00824016-.0317323.00824016-.0176181 0-.0319252-.00634252-.042815-.0191299-.00786614-.00890551-.0126929-.0224567-.0147795-.0405472h.22678v-.0127874zm-.132524-.0883819c.00956693.00947244.0155394.0251969.0177165.0471732h-.111685c.0018937-.0177165.00624803-.0309764.0130669-.0398819.0108031-.0143031.0252008-.0215.0432008-.0215.0156299 0 .0281378.00473228.0377008.0142087z" fill="#fffffe"/><path id="_398966056" d="m3.09911 3.4048v-.0829764h-.0619528v-.111972l-.11311.0578819v.0540906h-.0414921v.0829764h.0414921v.103736c0 .0328701.00322441.0567402.00956693.0714252.00644094.0146811.0162992.0256654.0295591.0328661.0133583.00720472.0341024.0108031.0622402.0108031.024248 0 .0502992-.0030315.0782402-.00918898l-.00833465-.0781535c-.015063.00483071-.0267126.00720079-.0350472.00720079-.00928346 0-.0158189-.00312598-.0195157-.00937795-.00236614-.0040748-.00359843-.0124134-.00359843-.0249134v-.104398h.0619528z" fill="#fffffe"/><path id="_398966536" d="m2.1018 3.61681v-.40696h-.16512l-.06337.24762-.06318-.24762h-.16587v.40696h.10287v-.31024l.07919.31024h.09322l.07938-.31024v.31024z" fill="#fffffe"/><path id="_398966728" d="m2.16991 3.40594.107996.0113661c.00445276-.0128858.0102323-.0215984.0174291-.0263346.0092874-.00596457.0231142-.00890157.0415866-.00890157.0144016 0 .0244409.00274409.030126.00833465.00577559.00558661.00862205.015248.00862205.0291772-.0140236.00558661-.027378.0100394-.0399764.0134488-.0126024.00350787-.0400748.00947244-.0824173.018-.0353346.00700787-.0595866.017811-.072752.0323031s-.0197047.0329646-.0197047.0554173c0 .0238701.00909055.0440512.027378.0603386.018189.0163937.0449016.0245394.0800472.0245394.0264291 0 .0496378-.00407087.0696299-.0122205.0146811-.00606299.0293622-.0162008.0441417-.0304094.00132283.00843307.00264961.0145906.00388583.0185669.00132283.00398031.00406693.00966535.00833465.0172402h.105811c-.00587402-.0122205-.00975984-.0222598-.0114606-.030122-.00179921-.0078622-.00265354-.0187598-.00265354-.0326811v-.13035c0-.0139252-.00274803-.0285118-.00833465-.0437598-.00549606-.0152598-.0130748-.0270945-.0227402-.0354331-.0136417-.0120315-.0307835-.0199843-.051248-.0237756-.0205551-.00379134-.0476496-.0056811-.0814646-.0056811-.0211299 0-.0407362.0016063-.0588307.00473228s-.0322992.0075748-.042626.0133583c-.0144961.00795669-.0254843.0173386-.0331575.0282283-.00767323.0107992-.0135433.0256693-.017622.0446181zm.157063.0853504c.0169606-.00435827.0331575-.00928346.0486969-.0148701v.018185c0 .0142126-.00227559.0257677-.00682677.0346693-.00454331.00890945-.0122165.0163898-.0230157.0225472-.0108937.00615748-.0226378.0092874-.0352362.0092874-.0120354 0-.0211299-.00284646-.0273819-.00852756-.00615354-.00568504-.00927953-.0130709-.00927953-.0220709 0-.0078622.00312598-.014878.00947244-.0210354.00605906-.00596457.0206457-.0120276.0435709-.018185z" fill="#fffffe"/><path id="_398966152" d="m2.56304 3.35697c-.0112756.0140157-.0168622.0307835-.0168622.0502047 0 .0178071.00520472.033626.015626.0475551.0105118.0138268.0233071.0237756.0385551.0295512.0153504.00587795.0425394.0122205.081752.0190433.0262402.00464173.0424409.00852756.0485039.0116535.00852756.00444882.0127874.0107992.0127874.0189449 0 .00719685-.00322047.0132559-.00975591.0179961-.00833465.00653543-.0200827.00975591-.0352402.00975591-.0139213 0-.0250079-.00283858-.0333425-.00852362-.00834252-.0056811-.0147795-.0151535-.0194213-.0284213l-.111969.0102323c.00644094.0283268.021122.0502087.0439567.0655551.0228228.015437.061189.0231142.114992.0231142.0380866 0 .0682126-.00473622.0902835-.0143031.0220709-.00956693.0382717-.0223622.0485-.0384646.0103268-.0160984.0154449-.0326772.0154449-.0497283 0-.0168661-.00483465-.0323071-.0145906-.0464213-.00966142-.0141142-.023685-.0249173-.0419646-.0324921-.018378-.00757874-.0462283-.0135472-.0838386-.0178071-.0247244-.00293701-.0408268-.00625591-.048122-.0100433-.00729528-.00369291-.0109882-.00909449-.0109882-.0163858 0-.00644094.00293701-.011937.00871654-.0164882.00577559-.00454331.015063-.00681496.027752-.00681496.0125984 0 .0233031.00292913.0321142.00880709.00644488.00444882.0110827.0113661.0138307.020748l.106854-.0102323c-.00738583-.0193228-.0166693-.0345787-.0278504-.0459449-.0111732-.0112756-.0251024-.0196063-.0418701-.0250118-.0166693-.0053937-.042622-.00804331-.0776772-.00804331-.033252 0-.0597756.0035-.0795709.0104173-.0197992.00691339-.0353386.0174291-.0466063.0315472z" fill="#fffffe"/></g></g><path d="m0 0h6.827v6.827h-6.827z" fill="none"/></svg>