<svg clip-rule="evenodd" fill-rule="evenodd" height="6.827in" image-rendering="optimizeQuality" shape-rendering="geometricPrecision" text-rendering="geometricPrecision" viewBox="0 0 6.82666 6.82666" width="6.827in" xmlns="http://www.w3.org/2000/svg"><g id="Layer_x0020_1"><path d="m1.25706 1.78925h4.31254c.222059 0 .403732.181669.403732.403728v2.44071c0 .222059-.181673.403728-.403732.403728h-4.31254c-.222051 0-.403724-.181669-.403724-.403728v-2.44071c0-.222059.181673-.403728.403724-.403728z" fill="#009cde"/><path d="m1.25706 1.86924c-.177898 0-.323728.145835-.323728.323732v2.44071c0 .177898.145831.323732.323728.323732h4.31254c.177902 0 .323736-.145827.323736-.323732v-2.44071c0-.177906-.145835-.323732-.323736-.323732z" fill="#fffffe"/><g id="_398953528"><path id="_398953744" d="m.92587 3.68588v.66666h2.33007l.3849-.66666z" fill="#002f86"/><g fill="#002f86"><path id="_398953720" d="m2.08854 2.53553c-.0429685-.041-.107429-.0614094-.193551-.0614094h-.395335v.769185h.238488v-.284681h.13035c.0959685 0 .167409-.0218465.214142-.0657126.0467283-.043689.070185-.104563.070185-.182272 0-.0757362-.0214882-.134106-.0642795-.17511zm-.282358.095437c.0447638 0 .0752008.00841339.091315.0252441.0162953.0168307.0243543.0372402.0243543.0614134 0 .0248858-.00931102.0452992-.0279331.0612362-.018622.0159331-.0510315.0239882-.0972244.0239882h-.0585512v-.171882h.0680394z"/><path id="_398953360" d="m2.52326 2.67286c-.0399291 0-.0769882.00304724-.111185.00895669-.0342008.00590551-.0610591.0143189-.0805748.0252441-.0273937.0150394-.0481614.0327638-.0626654.0533543-.0145.0204094-.0256024.0485236-.0333031.0843307l.204118.0214843c.00840945-.0243465.0193346-.0408228.0329409-.0497717.0175472-.0112795.043689-.0168307.0786024-.0168307.0272165 0 .0461969.00519291.056937.0157559.0109213.0105669.0162913.0288268.0162913.0551457-.0264961.010563-.0517402.0189803-.0755591.0254252-.023811.00662598-.0757362.0179016-.155768.0340197-.0667835.013248-.112622.0336575-.137508.0610551-.0248898.0273937-.0372441.0623071-.0372441.10474 0 .0451181.017189.0832598.051748.114055.034378.0309724.0848661.046374.151295.046374.0499528 0 .0938189-.00769685.131594-.0230984.027752-.0114606.0555079-.0306181.083437-.0574724.00250787.015937.00501575.0275709.00734252.0350945.00250787.00751575.00770079.0182598.0157559.0325827h.199996c-.0111024-.0230945-.0184409-.0420748-.0216654-.056937-.00340157-.0148622-.00501575-.0354488-.00501575-.0617717v-.246366c0-.0263189-.00518898-.0538937-.0157559-.0827205-.0103819-.0288268-.0247087-.0512047-.0429685-.0669646-.0257835-.0227402-.0581929-.0377756-.0968661-.0449409-.0388504-.00716142-.0900591-.0107441-.15398-.0107441zm.00913386.333209c.0320472-.00823622.0626654-.0175472.0920276-.0281102v.034378c0 .0268543-.00429528.0487008-.0128898.0655276-.00859449.0168346-.0230945.0309764-.0435079.0426142-.0205906.0116417-.0427913.0175512-.0666063.0175512-.0227402 0-.0399291-.00537402-.0517441-.0161181-.0116378-.0107402-.0175472-.0247047-.0175472-.0417165 0-.0148583.00590945-.0281102.0179055-.039748.0114567-.0112795.0390315-.0227402.0823622-.034378z"/><path id="_398953264" d="m3.34544 2.68575-.105996.371165-.114768-.371165h-.225244l.233657.557732c-.0109213.0293622-.0239921.0497756-.0395669.0610512-.0155787.0114606-.0359921.0171929-.0612362.0171929-.0377795 0-.0719803-.00483858-.102772-.0145039l.0168307.14915c.0642756.00823228.11172.0125315.14252.0125315.0759134 0 .132315-.0166535.169378-.0501339.0261417-.0236378.0519213-.0692913.0769882-.136972l.220587-.596047h-.210378z"/></g><g fill="#009cde"><path id="_398953216" d="m3.9363 2.63096c.0447638 0 .0752008.00841339.091315.0252441.0162913.0168307.0243504.0372402.0243504.0614134 0 .0248858-.00931102.0452992-.0279291.0612362-.018622.0159331-.0510315.0239882-.0972244.0239882h-.0585512v-.171882h.0680394zm-.306528-.156846v.769185h.238488v-.284681h.13035c.0959685 0 .167409-.0218465.214142-.0657126.0467244-.043689.070185-.104563.070185-.182272 0-.0757362-.0214882-.134106-.0642835-.17511-.0429685-.041-.107425-.0614094-.193547-.0614094h-.395335z"/><path id="_398953000" d="m4.75454 2.87053c-.0264961.010563-.0517441.0189803-.0755591.0254252-.023811.00662598-.0757362.0179016-.155768.0340197-.0667835.013248-.112622.0336575-.137512.0610551-.0248858.0273937-.0372402.0623071-.0372402.10474 0 .0451181.017189.0832598.051748.114055.034374.0309724.0848661.046374.151291.046374.0499567 0 .0938228-.00769685.131598-.0230984.027752-.0114606.0555079-.0306181.083437-.0574724.00250787.015937.00501575.0275709.00734252.0350945.00250394.00751575.00770079.0182598.0157559.0325827h.199996c-.0111024-.0230945-.0184409-.0420748-.0216654-.056937-.00340157-.0148622-.00501575-.0354488-.00501575-.0617717v-.246366c0-.0263189-.00518898-.0538937-.0157559-.0827205-.0103819-.0288268-.0247087-.0512047-.0429685-.0669646-.0257835-.0227402-.0581929-.0377756-.0968661-.0449409-.0388504-.00716142-.090063-.0107441-.15398-.0107441-.0399291 0-.0769882.00304724-.111185.00895669-.0342008.00590551-.0610591.0143189-.0805748.0252441-.0273937.0150394-.0481614.0327638-.0626654.0533543-.0145039.0204094-.0256063.0485236-.0333031.0843307l.204114.0214843c.00841339-.0243465.0193386-.0408228.0329449-.0497717.0175472-.0112795.043689-.0168307.0786024-.0168307.0272165 0 .0461929.00519291.056937.0157559.0109173.0105669.0162913.0288268.0162913.0551457zm-.0920276.135539c.0320472-.00823622.0626654-.0175472.0920276-.0281102v.034378c0 .0268543-.00429528.0487008-.0128898.0655276-.00859449.0168346-.0230984.0309764-.0435118.0426142-.0205866.0116417-.0427874.0175512-.0666024.0175512-.0227402 0-.0399291-.00537402-.0517441-.0161181-.0116378-.0107402-.0175472-.0247047-.0175472-.0417165 0-.0148583.00590945-.0281102.0179055-.039748.0114567-.0112795.0390315-.0227402.0823622-.034378z"/><path id="_398952976" d="m5.09831 2.47412v.76918h.21379v-.76918z"/><path id="_398953480" d="m3.75631 3.68588h2.14449v.66666h-2.52938z"/></g></g></g><path d="m0 0h6.827v6.827h-6.827z" fill="none"/></svg>